<?xml version="1.0" encoding="utf-8"?>
<!-- Generator: Adobe Illustrator 22.1.0, SVG Export Plug-In . SVG Version: 6.00 Build 0)  -->
<svg version="1.1" id="Layer_1" xmlns="http://www.w3.org/2000/svg" xmlns:xlink="http://www.w3.org/1999/xlink" x="0px" y="0px"
	 viewBox="0 0 24 24" style="enable-background:new 0 0 24 24;" xml:space="preserve">
<style type="text/css">
	.st0{fill:#FFFFFF;}
</style>
<title>Adobe After Effects icon</title>
<g>
	<path class="st0" d="M16.4,9.9c-1,0-1.4,0.8-1.5,1.7H17c0.5,0,0.7,0,0.7,0c0-0.1,0-0.1,0-0.2C17.7,10.9,17.4,9.9,16.4,9.9z"/>
	<path class="st0" d="M7.2,11.9h2.4c-0.3-1.1-1-3.5-1.2-4.7C8.2,8.4,7.6,10.3,7.2,11.9z"/>
	<path class="st0" d="M0,0V24H24V0H0z M12.6,16.8H11c-0.1,0-0.1,0-0.1-0.1l-0.8-3l-3.3-0.1l-0.8,3c0,0.1-0.1,0.1-0.1,0.1H4.4
		c-0.1,0-0.1,0-0.1-0.1l2.8-9.9c0.1-0.2,0.1-0.3,0.1-0.8c0-0.1,0-0.1,0.1-0.1h2.1c0.1,0,0.1,0,0.1,0.1l3.2,10.8
		C12.7,16.8,12.7,16.8,12.6,16.8z M19.4,13c0,0.1,0,0.1-0.1,0.1c-0.2,0-0.8,0.1-1.7,0.1L15,13c0,1.4,0.7,2.3,2.2,2.3
		c0.6,0,1.1-0.1,1.6-0.3c0.1,0,0.1,0,0.1,0.1v1.3c0,0.1,0,0.1-0.1,0.2c-0.5,0.3-1.2,0.4-2,0.4c-2.6,0-3.6-1.9-3.6-4.1
		c0-2.4,1.2-4.3,3.4-4.3c2.2,0,2.9,1.8,2.9,3.3C19.5,12.4,19.5,12.8,19.4,13z"/>
</g>
</svg>
