<?xml version="1.0" encoding="utf-8"?>
<!-- Generator: Adobe Illustrator 22.1.0, SVG Export Plug-In . SVG Version: 6.00 Build 0)  -->
<svg version="1.1" id="Layer_1" xmlns="http://www.w3.org/2000/svg" xmlns:xlink="http://www.w3.org/1999/xlink" x="0px" y="0px"
	 viewBox="0 0 50 50" style="enable-background:new 0 0 50 50;" xml:space="preserve">
<style type="text/css">
	.st0{fill:#FFFFFF;}
</style>
<g>
	<path class="st0" d="M28.1,14.4c-2.3-1.3-4.6-1.6-7.2-1.2c0.1-0.2,0.2-0.3,0.4-0.4C24.2,9.9,27,7,30,4.2C33.4,1,39-0.1,43.5,2.7
		c3.9,2.4,5.7,6,5.3,10.6c-0.2,2.9-1.5,5.3-3.5,7.3c-3.4,3.4-6.6,6.8-10.1,10c-4,3.8-10.5,4.3-14.9,0.8c-0.4-0.3-0.8-0.7-1.2-1.2
		c-0.7-1-0.8-2-0.3-3.1c0.5-1,1.4-1.6,2.6-1.6c0.8,0,1.5,0.2,2.1,0.8c2.3,2,4.9,1.7,6.9,0.3c0.8-0.5,1.4-1.2,2-1.8
		c2.8-2.7,5.5-5.5,8.3-8.3c1.1-1.1,1.9-2.5,2-4.1c0.2-3.4-2.7-5.9-6.1-5.2c-1.1,0.2-2,0.7-2.8,1.5c-1.8,1.8-3.6,3.5-5.4,5.3
		C28.3,14.2,28.2,14.3,28.1,14.4z"/>
	<path class="st0" d="M21.8,35.6c2.3,1.3,4.7,1.7,7.2,1.2c-0.1,0.1-0.2,0.2-0.2,0.3c-3,3-5.9,6-8.9,8.8c-3.8,3.5-10.1,4.2-14.6,0.6
		c-3.1-2.5-4.4-5.7-4.1-9.6c0.2-2.8,1.4-5.3,3.4-7.4c3.3-3.3,6.6-6.7,9.9-9.9c2.7-2.6,6-3.7,9.8-3.3c2.3,0.2,4.4,1.2,6.1,2.8
		c1.2,1.1,1.5,2.6,0.8,3.8c-0.8,1.6-2.9,2.1-4.4,1c-0.6-0.4-1.1-0.8-1.7-1.2c-1.8-0.9-4.5-0.6-6,0.8c-2.7,2.6-5.3,5.2-7.9,7.8
		C10.3,32.2,9.5,33,8.7,34c-1.2,1.4-1.7,3-1.4,4.8c0.5,2.8,3,4.5,5.7,4c1.1-0.2,2-0.5,2.8-1.3c1.6-1.5,3.2-3.1,4.8-4.6
		C21.1,36.5,21.5,36,21.8,35.6z"/>
</g>
</svg>
