<?xml version="1.0" encoding="utf-8"?>
<!-- Generator: Adobe Illustrator 22.1.0, SVG Export Plug-In . SVG Version: 6.00 Build 0)  -->
<svg version="1.1" id="Layer_1" xmlns="http://www.w3.org/2000/svg" xmlns:xlink="http://www.w3.org/1999/xlink" x="0px" y="0px"
	 viewBox="0 0 24 24" style="enable-background:new 0 0 24 24;" xml:space="preserve">
<style type="text/css">
	.st0{fill:#FFFFFF;}
</style>
<title>Figma icon</title>
<path class="st0" d="M12,12c0-2.2,1.8-4,4-4s4,1.8,4,4s-1.8,4-4,4S12,14.2,12,12z M4,20c0-2.2,1.8-4,4-4h4v4c0,2.2-1.8,4-4,4
	S4,22.2,4,20z M12,0v8h4c2.2,0,4-1.8,4-4s-1.8-4-4-4H12z M4,4c0,2.2,1.8,4,4,4h4V0H8C5.8,0,4,1.8,4,4z M4,12c0,2.2,1.8,4,4,4h4V8H8
	C5.8,8,4,9.8,4,12z"/>
</svg>
