<?xml version="1.0" encoding="utf-8"?>
<!-- Generator: Adobe Illustrator 22.1.0, SVG Export Plug-In . SVG Version: 6.00 Build 0)  -->
<svg version="1.1" id="Layer_1" xmlns="http://www.w3.org/2000/svg" xmlns:xlink="http://www.w3.org/1999/xlink" x="0px" y="0px"
	 viewBox="0 0 24 24" style="enable-background:new 0 0 24 24;" xml:space="preserve">
<style type="text/css">
	.st0{fill:#FFFFFF;}
</style>
<title>Adobe Illustrator icon</title>
<g>
	<path class="st0" d="M9.9,7.2c-0.2,1.2-0.7,3.2-1.2,4.7h2.4C10.8,10.8,10.2,8.4,9.9,7.2L9.9,7.2z"/>
	<path class="st0" d="M0,0V24H24V0H0z M14.2,16.7h-1.6c-0.1,0-0.1,0-0.1-0.1l-0.8-3H8.3l0,0l-0.8,3c0,0.1-0.1,0.1-0.1,0.1H5.9
		c-0.1,0-0.1,0-0.1-0.1l2.8-9.9c0-0.2,0.1-0.3,0.1-0.8c0-0.1,0-0.1,0.1-0.1h2.1c0.1,0,0.1,0,0.1,0.1l3.2,10.8
		C14.3,16.6,14.2,16.7,14.2,16.7z M17.5,16.5c0,0.1,0,0.1-0.1,0.1h-1.5c-0.1,0-0.1-0.1-0.1-0.1V8.6l0,0c0-0.1,0-0.1,0.1-0.1h1.6
		c0.1,0,0.1,0,0.1,0.1V16.5z M16.6,7.4c-0.6,0-1-0.4-1-1h0c0-0.6,0.4-1,1-1c0.6,0,1,0.4,1,1C17.7,7,17.2,7.4,16.6,7.4z"/>
</g>
</svg>
