<?xml version="1.0" encoding="utf-8"?>
<!-- Generator: Adobe Illustrator 22.1.0, SVG Export Plug-In . SVG Version: 6.00 Build 0)  -->
<svg version="1.1" id="Layer_1" xmlns="http://www.w3.org/2000/svg" xmlns:xlink="http://www.w3.org/1999/xlink" x="0px" y="0px"
	 viewBox="0 0 24 24" style="enable-background:new 0 0 24 24;" xml:space="preserve">
<style type="text/css">
	.st0{fill:#FFFFFF;}
</style>
<title>JavaScript icon</title>
<path class="st0" d="M0,0v24h24V0H0z M12.6,20.6c-0.3,0.7-1,1.2-1.8,1.4c-1.2,0.3-2.3,0.1-3.2-0.4c-0.5-0.3-1-0.9-1.3-1.5L8.1,19
	c0.1,0,0.1,0.1,0.3,0.1c0.2,0.4,0.4,0.7,0.8,0.9c0.4,0.1,1.3,0.2,1.6-0.5c0.2-0.3,0.1-1.5,0.1-2.7c0-1.9,0-3.9,0-5.8h2.2
	c-0.1,2.2,0,4.2-0.1,6.3C13,18.5,13.1,19.7,12.6,20.6z M22,20c-0.8,2.7-5.2,2.8-6.9,1c-0.4-0.4-0.6-0.6-0.8-1.1l1.8-1.1
	c0.5,0.7,1,1.1,1.8,1.3c1.1,0.1,2.2-0.2,2-1.4c-0.2-1-2.2-1.2-3.6-2.2c-1.4-1-1.7-3.2-0.6-4.5c0.4-0.5,1-0.8,1.7-1l0.7-0.1
	c1.3-0.1,2.2,0.3,2.8,1c0.2,0.2,0.3,0.4,0.6,0.8c-0.8,0.4-0.8,0.4-1.8,1.1c-0.2-0.5-0.6-0.8-1-0.9c-0.6-0.1-1.4,0.1-1.5,0.7
	c-0.1,0.2-0.1,0.4,0,0.7c0.2,0.5,1.1,0.8,1.8,1.1c2.1,0.9,2.8,1.8,3,2.9C22.2,19.2,21.9,19.8,22,20z"/>
</svg>
