<?xml version="1.0" encoding="utf-8"?>
<!-- Generator: Adobe Illustrator 22.1.0, SVG Export Plug-In . SVG Version: 6.00 Build 0)  -->
<svg version="1.1" id="Layer_1" xmlns="http://www.w3.org/2000/svg" xmlns:xlink="http://www.w3.org/1999/xlink" x="0px" y="0px"
	 viewBox="0 0 50 50" style="enable-background:new 0 0 50 50;" xml:space="preserve">
<style type="text/css">
	.st0{fill:#CCECFC;}
	.st1{fill:#AEE2FA;}
	.st2{fill:#2E64AF;}
	.st3{fill:#2152A4;}
	.st4{fill:#FDC579;}
	.st5{fill:#FAA734;}
	.st6{fill:#994E23;}
	.st7{fill:#703917;}
	.st8{fill:#F0D9E9;}
	.st9{fill:#E2C1DC;}
	.st10{fill:#733C80;}
	.st11{fill:#5D3167;}
	.st12{fill:#44BFB7;}
	.st13{fill:#FFFFFF;}
	.st14{fill:#097A88;}
	.st15{fill:#FBFDFD;}
	.st16{fill:#464C57;}
	.st17{fill:#535A68;}
	.st18{fill:#8162AA;}
	.st19{fill:#F37264;}
	.st20{fill:#F05023;}
	.st21{fill:#48BA7F;}
	.st22{fill:#47B8E9;}
	.st23{fill:#545A69;}
	.st24{fill:none;stroke:#464C57;stroke-width:30;stroke-miterlimit:10;}
</style>
<circle cx="-3015.1" cy="-98.4" r="303"/>
<g>
	<path class="st0" d="M-488.5-82.5h-45v-45h45V-82.5z"/>
	<path class="st1" d="M-488.5-82.5H-511v-45h22.5V-82.5z"/>
	<path class="st2" d="M-491.1-85.1h-39.7v-39.7h39.7V-85.1z"/>
	<path class="st3" d="M-491.1-85.1H-511v-39.7h19.9V-85.1z"/>
	<path class="st0" d="M-521.1-96.6v-15h6.3c2.9,0,4.8,2.7,4.8,5c0,2.7-2.1,5-4.7,5h-3.5v5H-521.1z M-518.2-104.1h3.4
		c1,0,1.9-1,1.9-2.4c0-1.3-0.8-2.4-2-2.4h-3.2V-104.1z"/>
	<g>
		<path class="st1" d="M-504.1-96.4c-2.6,0-4.4-1.2-5-1.7l1.1-1.8c0.7,0.5,2.2,1.5,3.9,1.5c1.1,0,1.8-0.4,1.8-1.2
			c0-1-1.6-1.3-2.4-1.5c-0.7-0.2-3.9-0.7-3.9-3.1c0-2.3,2-3.6,4.3-3.6c2.4,0,3.7,1,4.3,1.5l-1.1,1.7c-0.6-0.4-1.8-1.2-3.2-1.2
			c-1,0-1.7,0.4-1.7,1.2c0,1,1.8,1.3,2.2,1.4c0.8,0.2,4.3,0.7,4.3,3.3C-499.6-96.8-502.7-96.4-504.1-96.4z"/>
		<path class="st1" d="M-511-109.5v6c0.6-0.9,1-1.9,1-3.1C-510-107.6-510.4-108.6-511-109.5z"/>
	</g>
</g>
<g>
	<path class="st4" d="M-545.5-82.5h-45v-45h45V-82.5z"/>
	<path class="st5" d="M-545.5-82.5H-568v-45h22.5V-82.5z"/>
	<path class="st6" d="M-548.1-85.1h-39.7v-39.7h39.7V-85.1z"/>
	<path class="st7" d="M-548.1-85.1H-568v-39.7h19.9V-85.1z"/>
	<path class="st4" d="M-572.3-111.5h2.6l5.7,15h-3l-1.4-3.7h-5.2l-1.4,3.7h-3L-572.3-111.5z M-568.9-102.3l-2.1-5.9l-2.2,5.9H-568.9
		z"/>
	<g>
		<path class="st5" d="M-562.6-109.2v-2.8h2.8v2.8H-562.6z M-562.6-96.6v-11.1h2.8v11.1H-562.6z"/>
		<polygon class="st5" points="-568,-107.1 -568,-99.3 -567,-96.6 -564,-96.6 		"/>
	</g>
</g>
<g>
	<path class="st8" d="M-434.5-82.5h-45v-45h45V-82.5z"/>
	<path class="st9" d="M-434.5-82.5H-457v-45h22.5V-82.5z"/>
	<path class="st10" d="M-437.1-85.1h-39.7v-39.7h39.7V-85.1z"/>
	<path class="st11" d="M-437.1-85.1H-457v-39.7h19.9V-85.1z"/>
	<path class="st8" d="M-464.3-111.5h2.6l5.7,15h-3l-1.4-3.7h-5.2l-1.4,3.7h-3L-464.3-111.5z M-460.9-102.3l-2.1-5.9l-2.2,5.9H-460.9
		z"/>
	<g>
		<path class="st9" d="M-449.8-96.4c-3.5,0-5.8-2.6-5.8-5.7c0-2.7,1.9-5.8,5.8-5.8c2.8,0,5.8,1.9,5.8,5.7c0,0.2,0,0.8-0.1,0.9h-8.5
			c0,0.4,0.5,2.8,2.9,2.8c1.6,0,2.4-1,2.6-1.5l2.4,0.7C-445.1-98.4-446.5-96.4-449.8-96.4z M-447-103c-0.2-1.8-1.4-2.7-2.9-2.7
			c-1.5,0-2.7,1.1-2.8,2.7H-447z"/>
		<polygon class="st9" points="-457,-99.1 -457,-96.6 -456,-96.6 		"/>
	</g>
</g>
<g>
	<g>
		<path class="st12" d="M47.5,13.3c0,11.1,0,22.3,0,33.4c0,0.6-0.2,0.7-1,0.7c-14.4,0-28.7,0-43.1,0c-0.8,0-1-0.1-1-0.7
			c0-14.5,0-28.9,0-43.4c0-0.6,0.2-0.7,1-0.7c10,0,24.1,0,34.1,0c0.1,0.1,0.2,0.2,0.3,0.3c0.2,0.6,0.3,1.3,0.3,2c0,2.3,0,4.5,0,6.8
			c0,1,0.3,1.2,1.6,1.2c2.9,0,1.9,0,4.8,0c0.9,0,1.7,0,2.6,0.2C47.3,13.1,47.4,13.2,47.5,13.3z"/>
		<path class="st13" d="M36.8,2.7c0-0.1,0-0.1-0.1-0.2c3.4,0,6.8,0,10.2,0c0.5,0,0.6,0.1,0.6,0.6c0,3.4,0,6.8,0,10.2l-0.1,0l-0.1,0
			c-0.6-0.2-1.1-0.5-1.5-1c-2.7-2.7-5.4-5.4-8.1-8.1C37.3,3.8,37,3.3,36.8,2.7z"/>
		<path class="st14" d="M37,2.7c3.5,3.5,7,7,10.5,10.5c-2.5,0.2-5.1,0-7.6,0.1c-0.8,0-1.6,0-2.4,0c-0.4,0-0.6-0.1-0.6-0.6
			C37,9.4,36.8,6.1,37,2.7z"/>
	</g>
	<g>
		<path class="st14" d="M17,36.5c-1.5,1.5-3.6,1.8-5.5,0.8c-1.8-1-2.9-3.2-2.5-5.4c0.6-3.4,4-5.2,7.4-3.8c0.8,0.3,1.6,0.9,2.3,1.3
			c1,0,1.7,0.4,1.9,1.5c2.6,1.9,4.9,4.2,7.7,5.8c2.2,1.3,4.6,1.8,7.1,1.8c1.3,0,2.6,0.1,3.9-0.2c0.9-0.2,1.7,0,1.8,1.1
			c0.1,1-0.7,1.3-1.6,1.5c-6.5,1-12.1-0.7-17-5c-0.9-0.9-2-1.6-3-2.4c-1.1,0.3-1.5-0.8-2.3-1.1c-0.7-0.4-1.3-1-2.1-1.3
			c-1.8-0.6-3.3,0.3-3.2,2c0.1,1.3,1.1,2.1,2.4,1.7c0.5-0.2,1-0.2,1.6-0.1C17.4,34.7,17.7,35.4,17,36.5z"/>
		<path class="st13" d="M20.5,30.7c-0.6-0.5-1.3-1-1.9-1.5c1.3-4.2,1.9-8.6,2.1-13c0.1-1.9,0.2-3.9,0.3-5.8c0-0.8,0.4-1.5,1.3-1.4
			c0.9,0,1.2,0.7,1.2,1.5c-0.2,6.4-0.5,12.8-2.3,18.9C21.1,29.9,21.1,30.5,20.5,30.7z"/>
		<path class="st15" d="M17,36.5c0.2-1.1-0.1-1.7-1.3-1.7c-0.2-0.1-0.3-0.3-0.2-0.5c0.6-0.9,0.9-2,2.1-2.5c0.7,0.5,1.3,0.9,2,1.4
			C19.1,34.6,18.3,35.8,17,36.5z"/>
	</g>
</g>
<g>
	<g>
		<path class="st16" d="M-1141.2,845.7c0,61.6,0,123.3,0,184.9c0,45.1-32.4,77.3-77.6,77.3c-123.9,0-247.8,0-371.7,0
			c-44.6,0-77-32.4-77-76.9c-0.1-124.2-0.1-248.4,0-372.6c0-44.5,32.5-76.8,77.1-76.8c124.2,0,248.4,0,372.6,0
			c43.9,0,76.5,32.6,76.6,76.4C-1141.2,720.5-1141.2,783.1-1141.2,845.7z"/>
		<path class="st17" d="M-1644.7,844.7c0-61.6,0-123.3,0-184.9c0-33.2,22.2-55.5,55.2-55.5c123.6,0,247.1,0,370.7,0
			c32.4,0,54.7,22.4,54.8,54.9c0,123.6,0,247.1,0,370.7c0,32.6-22.3,55-54.7,55c-123.9,0-247.8,0-371.7,0
			c-31.8,0-54.3-22.6-54.3-54.5C-1644.8,968.6-1644.7,906.7-1644.7,844.7z"/>
		<path class="st18" d="M-1481.3,910.6c-23.4-5.8-41.3-18.8-50.4-41.6c-14.7-37.1,6.1-77.6,44.8-88.2c2.1-0.6,4.1-1.4,6.2-2.1
			c1.5-2.7,4.1-3.7,7-3.8c21.4-0.7,42.7-1.1,64.1,0.3c1.6,0.1,3,0.9,4.4,1.4c1.1,0.6,2,1.4,2.7,2.4c3.9,7.8,3.2,16.4,2.4,24.5
			c-0.9,10.2-0.5,20.1,1.2,30c-2.2,7.7,1.5,16.6-5.2,23.2c-0.2,17.9-0.4,35.8-0.6,53.7c-2.6,3.8-6.7,4.3-10.8,4.4
			c-18.4,0.4-36.7,0.4-55.1,0C-1474.6,914.7-1478.8,914.6-1481.3,910.6z"/>
		<path class="st19" d="M-1404.3,647.9c25.3,0,50.8-2.5,75.9,1.1c31.7,4.6,54.4,30.6,55.5,60.6c1.2,33-18.3,59.3-50.4,67.9
			c-1.5,0.4-3,1-4.4,1.5c-1.9,4.2-5.8,4.1-9.5,4.3c-5.2,0.3-10.5,0.6-15.7,1.3c-12.5-3.8-25.2-0.4-37.7-1.1c-5-0.3-10-0.1-13.9-4.1
			l0.3-0.6c-4.2-2.9-4.5-7.3-4.5-11.7c-0.3-35.9-0.3-71.7,0-107.6C-1408.8,655.2-1408.6,650.7-1404.3,647.9z"/>
		<path class="st20" d="M-1404.3,647.9c0,43.7,0,87.3,0,131c-25.5-0.1-51-0.1-76.4-0.2c-28.8-7.2-48.1-24.2-54.1-54.1
			c-7.5-37,21.5-75.2,59.4-76.8C-1451.8,646.8-1428.1,647.8-1404.3,647.9z"/>
		<path class="st21" d="M-1481.3,910.6c25.5-0.1,51.1-0.1,76.6-0.2c0.1,23.8,0.7,47.5,0.1,71.3c-0.8,29.5-27.8,57.2-57.5,60
			c-33.7,3.2-63.8-17.1-71.9-48.7c-9.3-36.2,11.8-71.5,48.2-80.9C-1484.2,911.8-1482.8,911.1-1481.3,910.6z"/>
		<path class="st22" d="M-1351.2,779.3c7.8-0.1,15.6-0.2,23.4-0.4c16.6,4.5,31.6,11.8,41.8,26.3c16.2,23.1,17.9,47.4,4.3,72.2
			c-12.8,23.3-39,36.5-65.4,32.6c-27.8-4.2-46.1-20.4-55-47.1c-0.7-2-1.3-4.1-2-6.1c0-8,0-16.1,0-24.1c1.6-12.3,3.4-24.2,12.3-34.3
			C-1380.8,785.8-1367.2,780.3-1351.2,779.3z"/>
		<path class="st23" d="M-1351.2,779.3c-27.9,7.6-45.7,25.2-52.8,53.3c-0.2-17.7-0.4-35.5-0.5-53.2
			C-1386.8,779.4-1369,779.4-1351.2,779.3z"/>
	</g>
	<rect x="-1656.9" y="592.1" class="st24" width="505.1" height="505.1"/>
</g>
<g>
	<circle cx="-2341.2" cy="-107.1" r="303"/>
	<path class="st13" d="M-2341.2-377.7c-150.8,0-273,120.1-273,268.2c0,118.5,78.2,219.1,186.6,254.5c13.6,2.5,18.7-5.8,18.7-12.9
		c0-6.4-0.2-23.2-0.3-45.6c-75.9,16.2-91.9-36-91.9-36c-12.4-31-30.4-39.2-30.4-39.2c-24.7-16.6,1.9-16.3,1.9-16.3
		c27.4,1.9,41.8,27.6,41.8,27.6c24.3,41,63.9,29.2,79.5,22.3c2.5-17.4,9.5-29.2,17.3-35.9c-60.6-6.7-124.3-29.8-124.3-132.6
		c0-29.3,10.6-53.2,28.1-72c-3.1-6.8-12.3-34.1,2.4-71c0,0,22.9-7.2,75.1,27.5c21.8-6,45-8.9,68.2-9.1c23.2,0.1,46.4,3.1,68.2,9.1
		c51.9-34.7,74.7-27.5,74.7-27.5c14.7,36.9,5.5,64.2,2.7,71c17.4,18.8,28,42.7,28,72c0,103-63.8,125.7-124.5,132.3
		c9.6,8.1,18.4,24.5,18.4,49.6c0,35.9-0.3,64.7-0.3,73.5c0,7,4.8,15.4,18.8,12.7c109.2-35.2,187.4-135.8,187.4-254.2
		C-2068.3-257.6-2190.5-377.7-2341.2-377.7z"/>
</g>
<path class="st13" d="M-3015.1-367.6c-148.7,0-269.2,120.6-269.2,269.2s120.6,269.2,269.2,269.2c148.7,0,269.2-120.6,269.2-269.2
	S-2866.4-367.6-3015.1-367.6z M-3093.3,39.4h-65.6v-197.3h65.6V39.4z M-3126.1-184.8h-0.4c-22,0-36.2-15.1-36.2-34.1
	c0-19.4,14.7-34.1,37.1-34.1c22.4,0,36.2,14.7,36.7,34.1C-3089-200-3103.2-184.8-3126.1-184.8z M-2856.9,39.4h-65.6V-66.1
	c0-26.5-9.5-44.6-33.2-44.6c-18.1,0-28.9,12.2-33.6,24c-1.7,4.2-2.2,10.1-2.2,16V39.4h-65.6c0,0,0.9-178.8,0-197.3h65.6v27.9
	c8.7-13.4,24.3-32.6,59.1-32.6c43.1,0,75.5,28.2,75.5,88.8V39.4z"/>
<g>
	<circle cx="-1672.1" cy="-98.2" r="303"/>
	<g>
		<g>
			<path class="st13" d="M-1724.4-153.8c0-25.3-17.2-25.3-17.2-25.3h-9.1h-61.6v54.2h66.3C-1734.5-124.9-1724.4-128.5-1724.4-153.8z
				"/>
			<path class="st13" d="M-1741.5-87.4h-70.7v64.9h67.4c10.1-0.3,28.9-3.5,28.9-31.6C-1715.9-87.8-1741.5-87.4-1741.5-87.4z"/>
			<path class="st13" d="M-1560.5-124.9c-37.5,0-42.7,37.4-42.7,37.4h79.8C-1523.5-87.4-1523-124.9-1560.5-124.9z"/>
			<path class="st13" d="M-1672.1-366c-147.9,0-267.7,119.9-267.7,267.7s119.9,267.7,267.7,267.7s267.7-119.9,267.7-267.7
				S-1524.3-366-1672.1-366z M-1613.7-207.9h100.2v29.9h-100.2V-207.9z M-1664.4-51.1c0,74.1-77.1,71.7-77.1,71.7h-70.7h-2.1h-53.6
				v-242.9h53.6h2.1h70.7c38.4,0,68.7,21.2,68.7,64.7c0,43.5-37.1,46.2-37.1,46.2C-1661-111.4-1664.4-51.1-1664.4-51.1z
				 M-1560.1-12.8c40.4,0,38.9-26.1,38.9-26.1h42.7c0,69.3-83.1,64.6-83.1,64.6c-99.7,0-93.3-92.8-93.3-92.8s-0.1-93.3,93.3-93.3
				c98.3,0,84.5,105.4,84.5,105.4h-125.8C-1602.8-9.9-1560.1-12.8-1560.1-12.8z"/>
		</g>
	</g>
</g>
<g>
	<circle cx="-3662.4" cy="-110.5" r="303"/>
	<g>
		<path class="st13" d="M-3921.4-31.5c1.1,0.4,1.9,0.7,2.6,1c32.3,13.3,64.6,26.7,96.9,39.9c1.9,0.8,2.9,1.8,3.4,3.9
			c7.3,28.4,30.6,49.9,59.4,54.9c40.4,7.1,78.8-19.4,86.6-59.7c0.9-4.6,1.5-9.2,1.3-13.9c-0.1-1.7,0.5-2.7,1.8-3.6
			c20.2-14.3,40.3-28.7,60.4-43.1c10.1-7.2,20.1-14.4,30.2-21.6c1.5-1.1,3-1.6,4.9-1.6c26.4-0.3,49.5-9.2,69-27
			c17.7-16.2,28.7-36.3,32.2-60.1c4.7-32.3-3.9-61-25.9-85.3c-15.3-16.9-34.3-27.6-56.7-31.5c-32.4-5.7-61.4,2.2-86.4,23.8
			c-17.6,15.2-28.5,34.6-33.2,57.4c-1.3,6.2-1.9,12.4-1.8,18.8c0,1.5-0.3,2.8-1.2,4.1c-21.3,30.9-42.6,61.8-63.8,92.7
			c-0.8,1.2-1.7,1.7-3.2,1.7c-14.8-0.2-28.5,3.6-41,11.5c-1.3,0.8-2.3,0.5-3.4,0c-19.7-8.1-39.5-16.3-59.2-24.4
			c-27.2-11.2-54.3-22.4-81.5-33.5c-0.8-0.3-1.6-0.7-2.4-1.1c4.6-109,88.3-226.4,225.3-248.9c148.5-24.4,281.6,74.5,309.2,213.2
			c29.5,148.2-65.4,285.6-204.8,317C-3747.6,185.8-3882.2,97.9-3921.4-31.5z"/>
		<path class="st13" d="M-3642.6-178.2c0.1-37,29.5-68.5,68.3-68.6c38.2-0.1,68.5,30.6,68.6,68.3c0.1,37.8-30,68.9-68.6,68.9
			C-3613-109.7-3642.4-141.2-3642.6-178.2z M-3574-127c27.8,0.4,51.4-22.7,51.4-51.4c0-27.4-21.9-51.1-50.6-51.5
			c-28.8-0.4-51.9,22.7-52.1,50.9C-3625.6-149-3601-126.6-3574-127z"/>
		<path class="st13" d="M-3766.2-59.9c27-10.5,60.8,1.4,73.5,31.7c12.3,29.4-1.3,63.5-31.3,75.9c-29.8,12.3-61.7-2.2-73.9-28.3
			c1.1,0.4,1.9,0.6,2.6,1c10,4.2,20.1,8.3,30.1,12.5c5.4,2.2,11,3.5,16.7,3.5c9.4-0.1,18-2.9,25.6-8.6c19.7-14.8,22.8-43.4,6.6-62
			c-4.4-5-9.6-8.8-15.8-11.4c-10.6-4.4-21.2-8.8-31.7-13.2C-3764.4-59-3765.1-59.3-3766.2-59.9z"/>
	</g>
</g>
</svg>
