<?xml version="1.0" encoding="utf-8"?>
<!-- Generator: Adobe Illustrator 22.1.0, SVG Export Plug-In . SVG Version: 6.00 Build 0)  -->
<svg version="1.1" id="Layer_1" xmlns="http://www.w3.org/2000/svg" xmlns:xlink="http://www.w3.org/1999/xlink" x="0px" y="0px"
	 viewBox="0 0 24 24" style="enable-background:new 0 0 24 24;" xml:space="preserve">
<style type="text/css">
	.st0{fill:#FFFFFF;}
</style>
<title>Adobe Illustrator icon</title>
<g>
	<path class="st0" d="M0,0v24h24V0H0z M22,22.9c-4.5,0.7-8.4-0.5-11.7-3.5c-0.6-0.6-1.3-1.1-2-1.6c-0.1,0-0.1,0-0.2,0
		c-0.3,0.8-0.8,1.5-1.6,2.1c-1,0.7-2.5,1.1-3.9,0.4c-1.2-0.7-2-2.2-1.7-3.7c0.4-2.3,2.8-3.6,5.1-2.6c0.6,0.2,1,0.6,1.5,0.8l0-0.1
		c0.9-2.9,1.3-5.9,1.5-9c0.1-1.3,0.1-2.7,0.2-4c0-0.6,0.3-1,0.9-1c0.6,0,0.8,0.5,0.8,1c-0.1,4.4-0.3,8.8-1.6,13.1
		c-0.1,0.3-0.1,0.3-0.2,0.5c0,0.1-0.1,0.4-0.1,0.6c1.8,1.3,3.3,2.8,5.2,3.9c1.5,0.9,3.2,1.2,4.9,1.2c0.9,0,1.8,0.1,2.7-0.1
		c0.6-0.1,1.2,0,1.2,0.8C23.2,22.6,22.6,22.8,22,22.9z"/>
	<path class="st0" d="M2.9,17.5C3,18.4,3.7,19,4.6,18.7l0.8-0.3c0.3-0.5,0.5-1,1-1.4c-0.4-0.3-0.8-0.6-1.3-0.8
		C3.9,15.7,2.9,16.4,2.9,17.5z"/>
</g>
</svg>
