<?xml version="1.0" encoding="utf-8"?>
<!-- Generator: Adobe Illustrator 22.1.0, SVG Export Plug-In . SVG Version: 6.00 Build 0)  -->
<svg version="1.1" id="Layer_1" xmlns="http://www.w3.org/2000/svg" xmlns:xlink="http://www.w3.org/1999/xlink" x="0px" y="0px"
	 viewBox="0 0 24 24" style="enable-background:new 0 0 24 24;" xml:space="preserve">
<style type="text/css">
	.st0{fill:#FFFFFF;}
</style>
<title>Adobe Photoshop icon</title>
<g>
	<path class="st0" d="M8.5,7.5c-0.4,0-0.8,0-0.9,0v3.8c0.2,0,0.4,0,0.8,0c1.1,0,2.2-0.4,2.2-1.9C10.6,8.2,9.8,7.5,8.5,7.5z"/>
	<path class="st0" d="M0,0V24H24V0H0z M8.4,12.9c-0.4,0-0.5,0-0.8,0v3.8c0,0.1,0,0.1-0.1,0.1H6c-0.1,0-0.1,0-0.1-0.1V6.2
		C5.9,6.1,5.9,6,6,6c0.6,0,1.5,0,2.5,0c2.7,0,3.9,1.5,3.9,3.4C12.4,11.9,10.6,12.9,8.4,12.9z M15.7,16.9c-0.9,0-1.6-0.2-2-0.4
		c-0.1,0-0.1-0.1-0.1-0.2v-1.4c0-0.1,0.1-0.1,0.1-0.1c0.6,0.4,1.4,0.6,2,0.6c0.8,0,1.1-0.3,1.1-0.8c0-0.4-0.2-0.7-1.2-1.2
		c-1.4-0.7-2-1.3-2-2.5c0-1.3,1-2.3,2.7-2.3c0.8,0,1.5,0.1,1.8,0.3C18.2,9,18.2,9,18.2,9.1v1.3c0,0.1,0,0.1-0.1,0.1
		c-0.5-0.2-1.1-0.3-1.8-0.3c-0.8,0-1,0.4-1,0.7c0,0.4,0.2,0.6,1.2,1.1c1.5,0.7,2,1.4,2,2.5C18.5,16.1,17.3,16.9,15.7,16.9z"/>
</g>
</svg>
