<?xml version="1.0" encoding="utf-8"?>
<!-- Generator: Adobe Illustrator 22.1.0, SVG Export Plug-In . SVG Version: 6.00 Build 0)  -->
<svg version="1.1" id="Layer_1" xmlns="http://www.w3.org/2000/svg" xmlns:xlink="http://www.w3.org/1999/xlink" x="0px" y="0px"
	 viewBox="0 0 50 50" style="enable-background:new 0 0 50 50;" xml:space="preserve">
<style type="text/css">
	.st0{fill:#FFFFFF;}
</style>
<g>
	<path class="st0" d="M6.7,42.4c0.5-1.4,1-2.7,1.5-4c1.4-3.7,2.8-7.3,4.1-11c0.3-0.8,0.6-1.6,0.9-2.3c0.7-1.7,2.3-2.8,4.2-2.8
		c9.4,0,18.8,0,28.2,0c0.3,0,0.7,0,1,0.1c1.2,0.4,1.6,1.4,1.2,2.6c-0.7,2-1.5,4.1-2.2,6.1c-1.3,3.6-2.6,7.1-3.9,10.7
		c-0.1,0.4-0.3,0.6-0.8,0.6c-11.3,0-22.6,0-33.9,0C7.1,42.4,7,42.4,6.7,42.4z"/>
	<path class="st0" d="M42.2,19.4c-0.2,0-0.5,0-0.7,0c-8,0-15.9,0-23.9,0c-3.4,0-6.1,1.9-7.2,5.1c-1.8,4.9-3.7,9.8-5.5,14.7
		c-0.1,0.3-0.3,0.4-0.6,0.3C2.9,39.2,2,38.1,2,36.6c0-3.7,0-7.4,0-11.2c0-3.8,0-7.6,0-11.5c0-2.1,1.1-3.2,3.2-3.2
		c3.5,0,7.1,0,10.6,0c0.4,0,0.7,0.1,0.9,0.5c0.7,1.6,1.6,3.1,2.3,4.7c0.2,0.4,0.4,0.5,0.9,0.5c6.4,0,12.9,0,19.3,0
		C41,16.5,42.2,17.6,42.2,19.4z"/>
</g>
</svg>
