<?xml version="1.0" encoding="utf-8"?>
<!-- Generator: Adobe Illustrator 22.1.0, SVG Export Plug-In . SVG Version: 6.00 Build 0)  -->
<svg version="1.1" id="Layer_1" xmlns="http://www.w3.org/2000/svg" xmlns:xlink="http://www.w3.org/1999/xlink" x="0px" y="0px"
	 viewBox="0 0 50 50" style="enable-background:new 0 0 50 50;" xml:space="preserve">
<style type="text/css">
	.st0{fill:#FFFFFF;}
</style>
<g>
	<path class="st0" d="M25,2.6c0.5,0.2,0.9,0.2,1.2,0.4c6.2,3.6,12.3,7.2,18.5,10.8c1.7,1,1.7,3.1,0,4.1c-5.5,3.2-10.9,6.4-16.4,9.6
		c-0.7,0.4-1.4,0.8-2.1,1.2c-0.8,0.5-1.6,0.4-2.4,0C17.7,25.2,11.5,21.6,5.4,18c-1.1-0.7-1.5-1.6-1.2-2.7c0.2-0.6,0.5-1,1-1.4
		c3.6-2.1,7.3-4.3,10.9-6.4c2.5-1.5,5-2.9,7.5-4.4C24,3,24.5,2.8,25,2.6z"/>
	<path class="st0" d="M45.9,25c0,0.9-0.4,1.6-1.2,2c-1.8,1.1-3.6,2.1-5.4,3.2c-4.2,2.5-8.4,4.9-12.6,7.4c-0.4,0.3-0.9,0.5-1.4,0.6
		c-0.6,0.1-1.1-0.1-1.6-0.4c-2.7-1.6-5.3-3.1-8-4.7c-3.4-2-6.8-4-10.2-6c-0.9-0.5-1.4-1.2-1.4-2.2c0-0.9,0.7-1.8,1.5-2.1
		c0.1,0,0.3,0,0.5,0.1c2.3,1.4,4.6,2.7,7,4.1c3.5,2.1,7,4.1,10.6,6.2c1,0.6,1.8,0.6,2.8,0C32.2,29.8,38,26.4,43.8,23
		c0.4-0.2,0.6-0.2,1,0C45.5,23.5,45.9,24.1,45.9,25z"/>
	<path class="st0" d="M25,47.4c-0.5-0.2-0.9-0.3-1.3-0.5c-2.6-1.5-5.1-3-7.7-4.5c-3.6-2.1-7.1-4.2-10.7-6.3C5,35.9,4.5,35.5,4.3,35
		c-0.5-1.1-0.1-2.5,1.3-3.1c0.1-0.1,0.3,0,0.5,0.1c2.1,1.2,4.2,2.5,6.3,3.7c3.8,2.2,7.6,4.5,11.5,6.7c0.8,0.5,1.6,0.4,2.4,0
		c4.5-2.6,8.9-5.2,13.4-7.9c1.4-0.8,2.9-1.7,4.3-2.5c0.3-0.2,0.5-0.1,0.7,0c1.2,0.8,1.7,2,1,3.2c-0.2,0.4-0.6,0.7-0.9,0.9
		c-3.4,2-6.8,4-10.1,6c-2.7,1.6-5.4,3.2-8.1,4.8C26,47,25.5,47.2,25,47.4z"/>
</g>
</svg>
