<?xml version="1.0" encoding="utf-8"?>
<!-- Generator: Adobe Illustrator 22.1.0, SVG Export Plug-In . SVG Version: 6.00 Build 0)  -->
<svg version="1.1" id="Layer_1" xmlns="http://www.w3.org/2000/svg" xmlns:xlink="http://www.w3.org/1999/xlink" x="0px" y="0px"
	 viewBox="0 0 50 50" style="enable-background:new 0 0 50 50;" xml:space="preserve">
<style type="text/css">
	.st0{fill:#CCECFC;}
	.st1{fill:#AEE2FA;}
	.st2{fill:#2E64AF;}
	.st3{fill:#2152A4;}
	.st4{fill:#FDC579;}
	.st5{fill:#FAA734;}
	.st6{fill:#994E23;}
	.st7{fill:#703917;}
	.st8{fill:#F0D9E9;}
	.st9{fill:#E2C1DC;}
	.st10{fill:#733C80;}
	.st11{fill:#5D3167;}
	.st12{fill:#44BFB7;}
	.st13{fill:#FFFFFF;}
	.st14{fill:#097A88;}
	.st15{fill:#FBFDFD;}
	.st16{fill:#464C57;}
	.st17{fill:#535A68;}
	.st18{fill:#8162AA;}
	.st19{fill:#F37264;}
	.st20{fill:#F05023;}
	.st21{fill:#48BA7F;}
	.st22{fill:#47B8E9;}
	.st23{fill:#545A69;}
	.st24{fill:none;stroke:#464C57;stroke-width:2.5648;stroke-miterlimit:10;}
	.st25{fill:#FCFCFC;}
</style>
<g>
	<path class="st0" d="M-488.5-82.5h-45v-45h45V-82.5z"/>
	<path class="st1" d="M-488.5-82.5H-511v-45h22.5V-82.5z"/>
	<path class="st2" d="M-491.1-85.1h-39.7v-39.7h39.7V-85.1z"/>
	<path class="st3" d="M-491.1-85.1H-511v-39.7h19.9V-85.1z"/>
	<path class="st0" d="M-521.1-96.6v-15h6.3c2.9,0,4.8,2.7,4.8,5c0,2.7-2.1,5-4.7,5h-3.5v5H-521.1z M-518.2-104.1h3.4
		c1,0,1.9-1,1.9-2.4c0-1.3-0.8-2.4-2-2.4h-3.2V-104.1z"/>
	<g>
		<path class="st1" d="M-504.1-96.4c-2.6,0-4.4-1.2-5-1.7l1.1-1.8c0.7,0.5,2.2,1.5,3.9,1.5c1.1,0,1.8-0.4,1.8-1.2
			c0-1-1.6-1.3-2.4-1.5c-0.7-0.2-3.9-0.7-3.9-3.1c0-2.3,2-3.6,4.3-3.6c2.4,0,3.7,1,4.3,1.5l-1.1,1.7c-0.6-0.4-1.8-1.2-3.2-1.2
			c-1,0-1.7,0.4-1.7,1.2c0,1,1.8,1.3,2.2,1.4c0.8,0.2,4.3,0.7,4.3,3.3C-499.6-96.8-502.7-96.4-504.1-96.4z"/>
		<path class="st1" d="M-511-109.5v6c0.6-0.9,1-1.9,1-3.1C-510-107.6-510.4-108.6-511-109.5z"/>
	</g>
</g>
<g>
	<path class="st4" d="M-545.5-82.5h-45v-45h45V-82.5z"/>
	<path class="st5" d="M-545.5-82.5H-568v-45h22.5V-82.5z"/>
	<path class="st6" d="M-548.1-85.1h-39.7v-39.7h39.7V-85.1z"/>
	<path class="st7" d="M-548.1-85.1H-568v-39.7h19.9V-85.1z"/>
	<path class="st4" d="M-572.3-111.5h2.6l5.7,15h-3l-1.4-3.7h-5.2l-1.4,3.7h-3L-572.3-111.5z M-568.9-102.3l-2.1-5.9l-2.2,5.9H-568.9
		z"/>
	<g>
		<path class="st5" d="M-562.6-109.2v-2.8h2.8v2.8H-562.6z M-562.6-96.6v-11.1h2.8v11.1H-562.6z"/>
		<polygon class="st5" points="-568,-107.1 -568,-99.3 -567,-96.6 -564,-96.6 		"/>
	</g>
</g>
<g>
	<path class="st8" d="M-434.5-82.5h-45v-45h45V-82.5z"/>
	<path class="st9" d="M-434.5-82.5H-457v-45h22.5V-82.5z"/>
	<path class="st10" d="M-437.1-85.1h-39.7v-39.7h39.7V-85.1z"/>
	<path class="st11" d="M-437.1-85.1H-457v-39.7h19.9V-85.1z"/>
	<path class="st8" d="M-464.3-111.5h2.6l5.7,15h-3l-1.4-3.7h-5.2l-1.4,3.7h-3L-464.3-111.5z M-460.9-102.3l-2.1-5.9l-2.2,5.9H-460.9
		z"/>
	<g>
		<path class="st9" d="M-449.8-96.4c-3.5,0-5.8-2.6-5.8-5.7c0-2.7,1.9-5.8,5.8-5.8c2.8,0,5.8,1.9,5.8,5.7c0,0.2,0,0.8-0.1,0.9h-8.5
			c0,0.4,0.5,2.8,2.9,2.8c1.6,0,2.4-1,2.6-1.5l2.4,0.7C-445.1-98.4-446.5-96.4-449.8-96.4z M-447-103c-0.2-1.8-1.4-2.7-2.9-2.7
			c-1.5,0-2.7,1.1-2.8,2.7H-447z"/>
		<polygon class="st9" points="-457,-99.1 -457,-96.6 -456,-96.6 		"/>
	</g>
</g>
<g>
	<g>
		<path class="st12" d="M-374.8-116c0,11.1,0,22.3,0,33.4c0,0.6-0.2,0.7-1,0.7c-14.4,0-28.7,0-43.1,0c-0.8,0-1-0.1-1-0.7
			c0-14.5,0-28.9,0-43.4c0-0.6,0.2-0.7,1-0.7c10,0,24.1,0,34.1,0c0.1,0.1,0.2,0.2,0.3,0.3c0.2,0.6,0.3,1.3,0.3,2c0,2.3,0,4.5,0,6.8
			c0,1,0.3,1.2,1.6,1.2c2.9,0,1.9,0,4.8,0c0.9,0,1.7,0,2.6,0.2C-375-116.1-374.9-116.1-374.8-116z"/>
		<path class="st13" d="M-385.4-126.5c0-0.1,0-0.1-0.1-0.2c3.4,0,6.8,0,10.2,0c0.5,0,0.6,0.1,0.6,0.6c0,3.4,0,6.8,0,10.2l-0.1,0
			l-0.1,0c-0.6-0.2-1.1-0.5-1.5-1c-2.7-2.7-5.4-5.4-8.1-8.1C-384.9-125.5-385.3-125.9-385.4-126.5z"/>
		<path class="st14" d="M-385.3-126.5c3.5,3.5,7,7,10.5,10.5c-2.5,0.2-5.1,0-7.6,0.1c-0.8,0-1.6,0-2.4,0c-0.4,0-0.6-0.1-0.6-0.6
			C-385.3-119.9-385.4-123.2-385.3-126.5z"/>
	</g>
	<g>
		<path class="st14" d="M-405.3-92.8c-1.5,1.5-3.6,1.8-5.5,0.8c-1.8-1-2.9-3.2-2.5-5.4c0.6-3.4,4-5.2,7.4-3.8
			c0.8,0.3,1.6,0.9,2.3,1.3c1,0,1.7,0.4,1.9,1.5c2.6,1.9,4.9,4.2,7.7,5.8c2.2,1.3,4.6,1.8,7.1,1.8c1.3,0,2.6,0.1,3.9-0.2
			c0.9-0.2,1.7,0,1.8,1.1c0.1,1-0.7,1.3-1.6,1.5c-6.5,1-12.1-0.7-17-5c-0.9-0.9-2-1.6-3-2.4c-1.1,0.3-1.5-0.8-2.3-1.1
			c-0.7-0.4-1.3-1-2.1-1.3c-1.8-0.6-3.3,0.3-3.2,2c0.1,1.3,1.1,2.1,2.4,1.7c0.5-0.2,1-0.2,1.6-0.1
			C-404.9-94.5-404.6-93.9-405.3-92.8z"/>
		<path class="st13" d="M-401.7-98.5c-0.6-0.5-1.3-1-1.9-1.5c1.3-4.2,1.9-8.6,2.1-13c0.1-1.9,0.2-3.9,0.3-5.8c0-0.8,0.4-1.5,1.3-1.4
			c0.9,0,1.2,0.7,1.2,1.5c-0.2,6.4-0.5,12.8-2.3,18.9C-401.2-99.3-401.1-98.8-401.7-98.5z"/>
		<path class="st15" d="M-405.3-92.8c0.2-1.1-0.1-1.7-1.3-1.7c-0.2-0.1-0.3-0.3-0.2-0.5c0.6-0.9,0.9-2,2.1-2.5
			c0.7,0.5,1.3,0.9,2,1.4C-403.1-94.6-404-93.5-405.3-92.8z"/>
	</g>
</g>
<g>
	<g>
		<path class="st16" d="M-303-102.9c0,5.3,0,10.5,0,15.8c0,3.9-2.8,6.6-6.6,6.6c-10.6,0-21.2,0-31.8,0c-3.8,0-6.6-2.8-6.6-6.6
			c0-10.6,0-21.2,0-31.9c0-3.8,2.8-6.6,6.6-6.6c10.6,0,21.2,0,31.9,0c3.8,0,6.5,2.8,6.5,6.5C-303-113.6-303-108.3-303-102.9z"/>
		<path class="st17" d="M-346-103c0-5.3,0-10.5,0-15.8c0-2.8,1.9-4.7,4.7-4.7c10.6,0,21.1,0,31.7,0c2.8,0,4.7,1.9,4.7,4.7
			c0,10.6,0,21.1,0,31.7c0,2.8-1.9,4.7-4.7,4.7c-10.6,0-21.2,0-31.8,0c-2.7,0-4.6-1.9-4.6-4.7C-346.1-92.4-346-97.7-346-103z"/>
		<path class="st18" d="M-332.1-97.4c-2-0.5-3.5-1.6-4.3-3.6c-1.3-3.2,0.5-6.6,3.8-7.5c0.2,0,0.4-0.1,0.5-0.2
			c0.1-0.2,0.4-0.3,0.6-0.3c1.8-0.1,3.7-0.1,5.5,0c0.1,0,0.3,0.1,0.4,0.1c0.1,0,0.2,0.1,0.2,0.2c0.3,0.7,0.3,1.4,0.2,2.1
			c-0.1,0.9,0,1.7,0.1,2.6c-0.2,0.7,0.1,1.4-0.4,2c0,1.5,0,3.1-0.1,4.6c-0.2,0.3-0.6,0.4-0.9,0.4c-1.6,0-3.1,0-4.7,0
			C-331.5-97-331.9-97-332.1-97.4z"/>
		<path class="st19" d="M-325.5-119.8c2.2,0,4.3-0.2,6.5,0.1c2.7,0.4,4.6,2.6,4.7,5.2c0.1,2.8-1.6,5.1-4.3,5.8
			c-0.1,0-0.3,0.1-0.4,0.1c-0.2,0.4-0.5,0.4-0.8,0.4c-0.4,0-0.9,0.1-1.3,0.1c-1.1-0.3-2.2,0-3.2-0.1c-0.4,0-0.9,0-1.2-0.3l0-0.1
			c-0.4-0.2-0.4-0.6-0.4-1c0-3.1,0-6.1,0-9.2C-325.9-119.2-325.9-119.6-325.5-119.8z"/>
		<path class="st20" d="M-325.5-119.8c0,3.7,0,7.5,0,11.2c-2.2,0-4.4,0-6.5,0c-2.5-0.6-4.1-2.1-4.6-4.6c-0.6-3.2,1.8-6.4,5.1-6.6
			C-329.6-119.9-327.5-119.8-325.5-119.8z"/>
		<path class="st21" d="M-332.1-97.4c2.2,0,4.4,0,6.6,0c0,2,0.1,4.1,0,6.1c-0.1,2.5-2.4,4.9-4.9,5.1c-2.9,0.3-5.5-1.5-6.1-4.2
			c-0.8-3.1,1-6.1,4.1-6.9C-332.3-97.3-332.2-97.3-332.1-97.4z"/>
		<path class="st22" d="M-320.9-108.6c0.7,0,1.3,0,2,0c1.4,0.4,2.7,1,3.6,2.2c1.4,2,1.5,4.1,0.4,6.2c-1.1,2-3.3,3.1-5.6,2.8
			c-2.4-0.4-3.9-1.7-4.7-4c-0.1-0.2-0.1-0.3-0.2-0.5c0-0.7,0-1.4,0-2.1c0.1-1.1,0.3-2.1,1.1-2.9C-323.5-108-322.3-108.5-320.9-108.6
			z"/>
		<path class="st23" d="M-320.9-108.6c-2.4,0.6-3.9,2.2-4.5,4.6c0-1.5,0-3,0-4.5C-324-108.6-322.5-108.6-320.9-108.6z"/>
	</g>
	<rect x="-347.1" y="-124.6" class="st24" width="43.2" height="43.2"/>
</g>
<g>
	<circle cx="-200.5" cy="-106.5" r="22.5"/>
	<path class="st13" d="M-200.5-126.6c-11.2,0-20.3,8.9-20.3,19.9c0,8.8,5.8,16.3,13.9,18.9c1,0.2,1.4-0.4,1.4-1c0-0.5,0-1.7,0-3.4
		c-5.6,1.2-6.8-2.7-6.8-2.7c-0.9-2.3-2.3-2.9-2.3-2.9c-1.8-1.2,0.1-1.2,0.1-1.2c2,0.1,3.1,2.1,3.1,2.1c1.8,3,4.7,2.2,5.9,1.7
		c0.2-1.3,0.7-2.2,1.3-2.7c-4.5-0.5-9.2-2.2-9.2-9.8c0-2.2,0.8-4,2.1-5.3c-0.2-0.5-0.9-2.5,0.2-5.3c0,0,1.7-0.5,5.6,2
		c1.6-0.4,3.3-0.7,5.1-0.7c1.7,0,3.4,0.2,5.1,0.7c3.9-2.6,5.5-2,5.5-2c1.1,2.7,0.4,4.8,0.2,5.3c1.3,1.4,2.1,3.2,2.1,5.3
		c0,7.7-4.7,9.3-9.2,9.8c0.7,0.6,1.4,1.8,1.4,3.7c0,2.7,0,4.8,0,5.5c0,0.5,0.4,1.1,1.4,0.9c8.1-2.6,13.9-10.1,13.9-18.9
		C-180.2-117.7-189.3-126.6-200.5-126.6z"/>
</g>
<g>
	<circle cx="-137" cy="-105" r="22.5"/>
	<path class="st13" d="M-137-125c-11,0-20,9-20,20s9,20,20,20s20-9,20-20S-126-125-137-125z M-142.8-94.8h-4.9v-14.6h4.9V-94.8z
		 M-145.2-111.4L-145.2-111.4c-1.7,0-2.7-1.1-2.7-2.5c0-1.4,1.1-2.5,2.8-2.5s2.7,1.1,2.7,2.5C-142.5-112.5-143.5-111.4-145.2-111.4z
		 M-125.3-94.8h-4.9v-7.8c0-2-0.7-3.3-2.5-3.3c-1.3,0-2.1,0.9-2.5,1.8c-0.1,0.3-0.2,0.8-0.2,1.2v8.2h-4.9c0,0,0.1-13.3,0-14.6h4.9
		v2.1c0.6-1,1.8-2.4,4.4-2.4c3.2,0,5.6,2.1,5.6,6.6V-94.8z"/>
</g>
<g>
	<circle cx="-260" cy="-107.7" r="22.5"/>
	<g>
		<g>
			<path class="st13" d="M-263.8-111.8c0-1.9-1.3-1.9-1.3-1.9h-0.7h-4.6v4h4.9C-264.6-109.7-263.8-110-263.8-111.8z"/>
			<path class="st13" d="M-265.1-106.9h-5.3v4.8h5c0.8,0,2.1-0.3,2.1-2.3C-263.2-106.9-265.1-106.9-265.1-106.9z"/>
			<path class="st13" d="M-251.7-109.7c-2.8,0-3.2,2.8-3.2,2.8h5.9C-248.9-106.9-248.9-109.7-251.7-109.7z"/>
			<path class="st13" d="M-260-127.6c-11,0-19.9,8.9-19.9,19.9s8.9,19.9,19.9,19.9c11,0,19.9-8.9,19.9-19.9S-249-127.6-260-127.6z
				 M-255.6-115.9h7.4v2.2h-7.4V-115.9z M-259.4-104.2c0,5.5-5.7,5.3-5.7,5.3h-5.3h-0.2h-4v-18h4h0.2h5.2c2.9,0,5.1,1.6,5.1,4.8
				c0,3.2-2.8,3.4-2.8,3.4C-259.1-108.7-259.4-104.2-259.4-104.2z M-251.6-101.4c3,0,2.9-1.9,2.9-1.9h3.2c0,5.1-6.2,4.8-6.2,4.8
				c-7.4,0-6.9-6.9-6.9-6.9s0-6.9,6.9-6.9c7.3,0,6.3,7.8,6.3,7.8h-9.3C-254.8-101.1-251.6-101.4-251.6-101.4z"/>
		</g>
	</g>
</g>
<g>
	<circle cx="25" cy="25" r="22.5"/>
	<g>
		<path class="st13" d="M5.8,30.9c0.1,0,0.1,0,0.2,0.1c2.4,1,4.8,2,7.2,3c0.1,0.1,0.2,0.1,0.3,0.3c0.5,2.1,2.3,3.7,4.4,4.1
			c3,0.5,5.9-1.4,6.4-4.4c0.1-0.3,0.1-0.7,0.1-1c0-0.1,0-0.2,0.1-0.3c1.5-1.1,3-2.1,4.5-3.2c0.7-0.5,1.5-1.1,2.2-1.6
			c0.1-0.1,0.2-0.1,0.4-0.1c2,0,3.7-0.7,5.1-2c1.3-1.2,2.1-2.7,2.4-4.5c0.3-2.4-0.3-4.5-1.9-6.3c-1.1-1.3-2.5-2-4.2-2.3
			c-2.4-0.4-4.6,0.2-6.4,1.8c-1.3,1.1-2.1,2.6-2.5,4.3c-0.1,0.5-0.1,0.9-0.1,1.4c0,0.1,0,0.2-0.1,0.3c-1.6,2.3-3.2,4.6-4.7,6.9
			c-0.1,0.1-0.1,0.1-0.2,0.1c-1.1,0-2.1,0.3-3,0.9c-0.1,0.1-0.2,0-0.3,0c-1.5-0.6-2.9-1.2-4.4-1.8c-2-0.8-4-1.7-6.1-2.5
			c-0.1,0-0.1-0.1-0.2-0.1c0.3-8.1,6.6-16.8,16.7-18.5c11-1.8,20.9,5.5,23,15.8c2.2,11-4.9,21.2-15.2,23.5
			C18.7,47,8.7,40.5,5.8,30.9z"/>
		<path class="st13" d="M26.5,20c0-2.8,2.2-5.1,5.1-5.1c2.8,0,5.1,2.3,5.1,5.1c0,2.8-2.2,5.1-5.1,5.1C28.7,25.1,26.5,22.7,26.5,20z
			 M31.6,23.8c2.1,0,3.8-1.7,3.8-3.8c0-2-1.6-3.8-3.8-3.8c-2.1,0-3.9,1.7-3.9,3.8C27.7,22.1,29.6,23.8,31.6,23.8z"/>
		<path class="st13" d="M17.3,28.8c2-0.8,4.5,0.1,5.5,2.4c0.9,2.2-0.1,4.7-2.3,5.6c-2.2,0.9-4.6-0.2-5.5-2.1c0.1,0,0.1,0,0.2,0.1
			c0.7,0.3,1.5,0.6,2.2,0.9c0.4,0.2,0.8,0.3,1.2,0.3c0.7,0,1.3-0.2,1.9-0.6c1.5-1.1,1.7-3.2,0.5-4.6c-0.3-0.4-0.7-0.7-1.2-0.8
			c-0.8-0.3-1.6-0.7-2.4-1C17.4,28.8,17.4,28.8,17.3,28.8z"/>
	</g>
</g>
<g>
	<circle cx="25" cy="140.3" r="22.5"/>
	<g>
		<path class="st25" d="M35.2,139.2c-3.2,0-6.3,0-9.4,0c0-2.7,0-5.4,0-8.2c0.1,0,0.2,0,0.3,0c2.3,0,4.6,0,6.8,0
			c0.2,0,0.3,0.1,0.4,0.2c0.8,1.8,1.3,3.8,1.6,5.8C35,137.7,35.1,138.4,35.2,139.2z"/>
		<path class="st25" d="M35.2,141.4c-0.2,1.2-0.3,2.3-0.5,3.5c-0.2,1.4-0.7,2.8-1.2,4.2c-0.1,0.1-0.1,0.2-0.3,0.2
			c-2.4,0-4.9,0-7.3,0c0,0-0.1,0-0.1,0c0-2.6,0-5.2,0-7.9C28.8,141.4,31.9,141.4,35.2,141.4z"/>
		<path class="st25" d="M23.6,139.2c-3,0-6.1,0-9.1,0c0-0.5,0.1-1,0.1-1.5c0.3-2.2,0.8-4.2,1.6-6.2c0.1-0.3,0.3-0.4,0.6-0.4
			c2.2,0,4.3,0,6.5,0c0.1,0,0.2,0,0.3,0C23.6,133.8,23.6,136.5,23.6,139.2z"/>
		<path class="st25" d="M23.7,141.4c0,2.6,0,5.2,0,7.9c-0.1,0-0.2,0-0.3,0c-2.3,0-4.6,0-6.9,0c-0.2,0-0.3-0.1-0.4-0.3
			c-0.8-2-1.3-4.1-1.5-6.2c0-0.5-0.1-0.9-0.1-1.4C17.6,141.4,20.6,141.4,23.7,141.4z"/>
		<path class="st25" d="M45.1,139.2c-2.6,0-5.1,0-7.7,0c-0.2-2.8-0.7-5.6-1.8-8.2c0.2,0,0.4,0,0.5,0c2.2,0,4.3,0,6.5,0
			c0.2,0,0.3,0.1,0.4,0.3c1.1,2.3,1.8,4.8,2,7.4C45,138.8,45.1,139,45.1,139.2z"/>
		<path class="st25" d="M35.8,149.3c1-2.6,1.5-5.2,1.6-8c2.6,0,5.1,0,7.7,0c-0.1,0.7-0.1,1.4-0.2,2c-0.3,1.9-0.9,3.8-1.7,5.6
			c-0.1,0.3-0.3,0.4-0.5,0.4c-2.1,0-4.3,0-6.4,0C36.1,149.3,36,149.3,35.8,149.3z"/>
		<path class="st25" d="M14,131c-1,2.6-1.6,5.3-1.8,8.1c-2.4,0-4.8,0-7.3,0c0.1-0.6,0.1-1.2,0.2-1.8c0.2-1.6,0.7-3.2,1.3-4.8
			c0.2-0.5,0.4-0.9,0.6-1.4c0-0.1,0.2-0.2,0.3-0.2c2.2,0,4.3,0,6.5,0C13.9,131,13.9,131,14,131z"/>
		<path class="st25" d="M12.2,141.3c0.1,2.7,0.6,5.4,1.6,7.9c-0.1,0-0.2,0-0.2,0c-2.1,0-4.2,0-6.2,0c-0.2,0-0.3-0.1-0.4-0.3
			c-0.8-1.8-1.4-3.6-1.7-5.6c-0.1-0.7-0.2-1.4-0.3-2.1C7.3,141.3,9.7,141.3,12.2,141.3z"/>
		<path class="st25" d="M41.8,151.4c-2.5,3.8-5.8,6.4-10.1,8c-1.9,0.7-4.1,1.1-4.5,0.9c0.1-0.1,0.1-0.1,0.2-0.2
			c3.2-2.2,5.6-5.1,7.3-8.5c0.1-0.1,0.1-0.2,0.3-0.2c2.2,0,4.3,0,6.5,0C41.7,151.4,41.7,151.4,41.8,151.4z"/>
		<path class="st25" d="M41.5,128.9c-0.1,0-0.1,0-0.2,0c-2.1,0-4.2,0-6.3,0c-0.3,0-0.4-0.1-0.6-0.4c-1-1.9-2.1-3.6-3.6-5.1
			c-1-1.1-2.2-2-3.4-2.8c-0.1-0.1-0.3-0.2-0.1-0.4C33.3,121.1,38.1,123.9,41.5,128.9C41.6,128.9,41.6,128.9,41.5,128.9z"/>
		<path class="st25" d="M22.3,160.3c-2.2-0.2-4.3-0.8-6.2-1.8c-3.3-1.6-5.9-4-7.9-7.1c0.1,0,0.2,0,0.3,0c1.9,0,3.9,0,5.8,0
			c0.2,0,0.4,0.1,0.5,0.3c1.7,3.4,4.2,6.3,7.3,8.5C22.2,160.2,22.2,160.2,22.3,160.3z"/>
		<path class="st25" d="M8.4,128.9c3.1-4.4,7.3-7.3,12.6-8.3c0.4-0.1,0.8-0.2,1.3-0.1c-0.5,0.4-0.9,0.7-1.3,1c-2.5,2-4.5,4.4-6,7.3
			c0,0.1-0.2,0.2-0.3,0.2c-2.1,0-4.1,0-6.2,0C8.5,128.9,8.5,128.9,8.4,128.9z"/>
		<path class="st25" d="M25.7,158.6c0-2.4,0-4.8,0-7.1c2.2,0,4.4,0,6.6,0C31.8,153.1,27.7,157.5,25.7,158.6z"/>
		<path class="st25" d="M23.6,158.5c-2.7-1.9-4.8-4.2-6.3-7c2.1,0,4.2,0,6.3,0C23.6,153.8,23.6,156.1,23.6,158.5z"/>
		<path class="st25" d="M25.8,128.9c0-2.2,0-4.4,0-6.7c2.7,1.7,4.7,4,6.4,6.7C30,128.9,27.9,128.9,25.8,128.9z"/>
		<path class="st25" d="M23.7,122.4c0,2.2,0,4.4,0,6.5c-2,0-4,0-6.1,0C19.1,126.3,21.1,124.1,23.7,122.4z"/>
	</g>
</g>
</svg>
