<?xml version="1.0" encoding="utf-8"?>
<!-- Generator: Adobe Illustrator 22.1.0, SVG Export Plug-In . SVG Version: 6.00 Build 0)  -->
<svg version="1.1" id="Layer_1" xmlns="http://www.w3.org/2000/svg" xmlns:xlink="http://www.w3.org/1999/xlink" x="0px" y="0px"
	 viewBox="0 0 50 50" style="enable-background:new 0 0 50 50;" xml:space="preserve">
<style type="text/css">
	.st0{fill:#F06529;}
	.st1{fill:#FEFEFE;}
	.st2{fill:#3799D5;}
</style>
<g>
	<path class="st0" d="M2.4,25c0-6.2,0-12.4,0-18.6c0-1.9,1.1-3.4,2.8-3.9C5.7,2.5,6,2.4,6.4,2.4c12.4,0,24.8,0,37.2,0
		c2.3,0,3.9,1.6,3.9,3.9c0,12.4,0,24.8,0,37.3c0,2.3-1.6,3.9-3.9,3.9c-12.4,0-24.8,0-37.3,0c-2.3,0-3.9-1.6-3.9-3.9
		C2.4,37.4,2.4,31.2,2.4,25z"/>
	<path class="st1" d="M25,11c4.1,0,8.2,0,12.3,0c0.4,0,0.6,0,0.5,0.5c-0.4,4.5-0.8,9.1-1.2,13.6c-0.3,3.6-0.6,7.1-1,10.7
		c-0.1,0.9-0.1,0.9-1,1.1c-3,0.7-6.1,1.3-9.1,2c-0.3,0.1-0.7,0.1-1,0c-3.2-0.7-6.3-1.4-9.5-2.1c-0.4-0.1-0.6-0.3-0.6-0.7
		c-0.3-3.1-0.6-6.2-0.8-9.3c-0.4-4-0.7-8-1.1-12c-0.1-1.1-0.2-2.2-0.3-3.4C12.1,11,12.2,11,12.7,11C16.8,11,20.9,11,25,11z"/>
	<path class="st0" d="M25.1,15.7c2.5,0,5.1,0,7.6,0c0.5,0,0.5,0.1,0.5,0.6c-0.2,0.8-0.3,1.5-0.4,2.3c-0.1,0.6-0.3,0.7-0.8,0.7
		c-3.5,0-7.1,0-10.6,0c-0.9,0-0.9,0-0.7,0.9c0.3,1.4,0.3,1.4,1.8,1.4c3,0,6.1,0,9.1,0c0.4,0,0.6,0.1,0.5,0.6
		c-0.4,3.2-0.7,6.4-1.1,9.5c0,0.3-0.2,0.5-0.5,0.7c-1.6,0.6-3.3,1.3-4.9,2c-0.3,0.1-0.6,0.1-0.9,0c-1.7-0.7-3.3-1.3-5-2
		c-0.3-0.1-0.5-0.3-0.5-0.6c-0.2-1.3-0.5-2.5-0.8-3.8c-0.1-0.3,0-0.5,0.4-0.5c0.8,0,1.6,0,2.5,0c0.3,0,0.4,0.1,0.5,0.4
		c0.1,0.4,0.2,0.8,0.3,1.3c0.1,0.5,0.3,0.8,0.8,1c0.8,0.2,1.5,0.8,2.3,0.8c0.8,0,1.5-0.6,2.3-0.8c0.5-0.2,0.7-0.4,0.7-0.9
		c0.1-1.2,0.3-2.3,0.4-3.5c0.1-0.4,0-0.5-0.5-0.5c-3.1,0-6.1,0-9.2,0c-0.8,0-0.8,0-0.9-0.8c-0.3-2.7-0.7-5.4-1-8
		c-0.1-0.4,0-0.5,0.5-0.5C19.9,15.7,22.5,15.7,25.1,15.7z"/>
</g>
<g>
	<path class="st2" d="M-266.8-122.3c0-131.3,0-262.7,0-394c1.8-6.5,1.2-13.5,4.4-19.9c8.7-16.9,21.5-29.5,39.3-36.5
		c5.2-2,10.9-1.2,16.3-2.6c130.7,0,261.3,0,392,0c7,1.6,14.3,1.1,20.9,4.5c17,8.6,29.3,21.6,36.5,39.3c2.1,5.1,1.2,10.9,2.6,16.3
		c0,131,0,262,0,393c-1.7,7.8-2,15.9-6.2,23.3c-8.8,15.2-21,26.4-37.2,33c-5.2,2.1-11.1,1.3-16.5,2.7c-131,0-262,0-393,0
		c-8-1.5-16.1-2-23.4-6.3c-15-8.8-26.3-20.7-32.8-36.9C-266.1-111.6-265.3-117.2-266.8-122.3z"/>
	<path class="st1" d="M-145.6,164c43.3,0,86.7,0,130-0.1c4,0,5.5,0.5,5,5.1c-3.4,35.1-6.6,70.3-9.8,105.5
		c-3.1,34.2-6.3,68.3-9.4,102.5c-1.8,19.2-3.6,38.5-5.2,57.7c-0.3,3.4-1.5,5.1-5.1,6c-34.1,9-68.2,18.2-102.2,27.5
		c-2.5,0.7-4.8,0.6-7.3-0.1c-33.9-9.2-67.8-18.3-101.7-27.3c-3.5-0.9-4.9-2.5-5.2-6c-2.3-26.9-4.8-53.8-7.3-80.6
		c-3.2-34.3-6.4-68.7-9.6-103c-2.5-27.5-4.9-55.1-7.6-82.6c-0.4-4,0.8-4.7,4.4-4.6C-233,164.1-189.3,164-145.6,164z"/>
	<path class="st2" d="M-143.5,287.3c23.3,0,46.6,0.2,70-0.1c5-0.1,6.1,1.3,5.7,6.1c-2.8,31.7-5.4,63.4-8,95.1
		c-0.2,2.3-1.2,3.1-3.2,3.7c-21.5,5.9-43,11.9-64.5,17.9c-2.2,0.6-4.2,0.2-6.4-0.4c-20.3-5.9-40.6-11.9-60.9-17.7
		c-2.9-0.8-4.2-2.1-4.4-5.4c-1-14-2.2-27.9-3.6-41.8c-0.4-4.1,0.1-6,5-5.7c8,0.5,16,0.3,24,0c3.5-0.1,4.6,1.2,4.8,4.5
		c0.2,6,0.9,12,1.2,17.9c0.1,2.7,1,4.1,3.8,4.9c10.6,2.7,21.2,5.8,31.8,8.7c2,0.6,3.9,0.6,5.9,0c10.3-3.2,20.7-6.4,31-9.4
		c2.6-0.8,3.9-1.9,4-4.7c0.7-12.1,1.4-24.3,2.3-36.4c0.4-4.5-2.5-3.8-5.1-3.8c-34.3,0-68.7,0-103,0c-8.8,0-8.9,0-9.6-8.8
		c-0.5-6.6-0.7-13.3-1.4-19.9c-0.4-3.7,1.1-5.2,4.3-6.5c23.8-9.9,47.6-20,71.3-30c1.4-0.6,2.7-1.1,4.7-2c-2.1-1.4-3.9-0.9-5.6-0.8
		c-24.3,0.2-48.7,0.3-73,0.6c-4,0.1-5.4-1.1-5.8-5.2c-0.7-7.8-1.9-15.6-3.4-23.2c-0.9-4.3,0-5.5,4.4-5.5c15.7,0.2,31.3,0,47,0
		c37.7-0.1,75.3,0,113-0.3c4.3,0,5.4,1.1,4.8,5.3c-0.9,7.6-1.5,15.3-1.7,22.9c-0.1,4-1.6,5.8-5.2,7.3c-23.4,9.7-46.6,19.6-69.9,29.5
		c-1.6,0.7-3.2,1.5-4.8,2.2C-143.7,286.7-143.6,287-143.5,287.3z"/>
</g>
<g>
	<path class="st1" d="M83.2,11c4.1,0,8.3,0,12.4,0c0.4,0,0.5,0.1,0.5,0.5c-0.3,3.4-0.6,6.7-0.9,10.1c-0.3,3.3-0.6,6.5-0.9,9.8
		c-0.2,1.8-0.3,3.7-0.5,5.5c0,0.3-0.1,0.5-0.5,0.6c-3.3,0.9-6.5,1.7-9.8,2.6c-0.2,0.1-0.5,0.1-0.7,0c-3.2-0.9-6.5-1.8-9.7-2.6
		c-0.3-0.1-0.5-0.2-0.5-0.6c-0.2-2.6-0.5-5.1-0.7-7.7c-0.3-3.3-0.6-6.6-0.9-9.8c-0.2-2.6-0.5-5.3-0.7-7.9c0-0.4,0.1-0.4,0.4-0.4
		C74.9,11,79,11,83.2,11z"/>
	<path class="st2" d="M83.4,22.7c2.2,0,4.5,0,6.7,0c0.5,0,0.6,0.1,0.5,0.6c-0.3,3-0.5,6-0.8,9.1c0,0.2-0.1,0.3-0.3,0.4
		c-2.1,0.6-4.1,1.1-6.1,1.7c-0.2,0.1-0.4,0-0.6,0c-1.9-0.6-3.9-1.1-5.8-1.7c-0.3-0.1-0.4-0.2-0.4-0.5c-0.1-1.3-0.2-2.7-0.3-4
		c0-0.4,0-0.6,0.5-0.5c0.8,0,1.5,0,2.3,0c0.3,0,0.4,0.1,0.5,0.4c0,0.6,0.1,1.1,0.1,1.7c0,0.3,0.1,0.4,0.4,0.5c1,0.3,2,0.5,3,0.8
		c0.2,0.1,0.4,0.1,0.6,0c1-0.3,2-0.6,3-0.9c0.2-0.1,0.4-0.2,0.4-0.5c0.1-1.2,0.1-2.3,0.2-3.5c0-0.4-0.2-0.4-0.5-0.4
		c-3.3,0-6.6,0-9.8,0c-0.8,0-0.8,0-0.9-0.8c-0.1-0.6-0.1-1.3-0.1-1.9c0-0.4,0.1-0.5,0.4-0.6c2.3-0.9,4.5-1.9,6.8-2.9
		c0.1-0.1,0.3-0.1,0.4-0.2c-0.2-0.1-0.4-0.1-0.5-0.1c-2.3,0-4.6,0-7,0.1c-0.4,0-0.5-0.1-0.6-0.5c-0.1-0.7-0.2-1.5-0.3-2.2
		c-0.1-0.4,0-0.5,0.4-0.5c1.5,0,3,0,4.5,0c3.6,0,7.2,0,10.8,0c0.4,0,0.5,0.1,0.5,0.5c-0.1,0.7-0.1,1.5-0.2,2.2
		c0,0.4-0.2,0.5-0.5,0.7c-2.2,0.9-4.4,1.9-6.7,2.8C83.7,22.5,83.5,22.6,83.4,22.7C83.4,22.7,83.4,22.7,83.4,22.7z"/>
</g>
</svg>
