<?xml version="1.0" encoding="utf-8"?>
<!-- Generator: Adobe Illustrator 22.1.0, SVG Export Plug-In . SVG Version: 6.00 Build 0)  -->
<svg version="1.1" id="Layer_1" xmlns="http://www.w3.org/2000/svg" xmlns:xlink="http://www.w3.org/1999/xlink" x="0px" y="0px"
	 viewBox="0 0 1200 800" style="enable-background:new 0 0 1200 800;" xml:space="preserve">
<g>
	<path d="M-69.6,371.2c1.1-0.9,1.8-2.2,2.8-3.2c0.5-0.5,1.2-1,1.9-1.2c0.7-0.3,1.4-0.3,2.1-0.5c-0.1-0.2-0.1-0.4-0.2-0.6
		c-1-0.2-2-0.3-3-0.5c0.2-1.1,0.3-2,0.4-2.8c-0.2-0.1-0.4-0.1-0.5-0.2c-0.6,1.1-1.2,2.1-1.7,3.2c-0.2,0-0.5-0.1-0.7-0.1
		c0.2-1.1,0.5-2.2,0.8-3.7c-1.4-0.6-2.9-1.3-4.7-2.2c0.7,4.6-5,6.2-3.4,10.6c1,0.3,2.7,0.3,3.1,0.9"/>
	<path d="M-76.8,359.5c-0.2,2.2-0.4,4.2-0.6,6.2C-74.4,361.4-74.4,360.8-76.8,359.5z"/>
	<path d="M648.8,224.4c0.1,0.2,0.3,0.4,0.4,0.6c1.8-1.2,3.7-2.3,5.1-3.3c0.6,0.5,1.1,0.9,1.7,1.4c-0.1-1-0.2-2-0.3-3.7
		C652.9,221.4,650.8,222.9,648.8,224.4z"/>
	<path d="M1195.5,357.9c0.2-1,0.5-21,0.8-22c0.7-2.3,0.5-3.9-0.8-5v-14.4c6.2-0.9,12.3-2,18.5-2.6c6.7-0.6,10.6-4.3,12.5-10.4
		c0.2-0.7,0.3-1.7-0.1-2.2c-0.6-0.9-1.7-2-2.6-2.1c-1.9,0-4.1,0.2-5.7,1.1c-1.4,0.8-3.3,2-5,1.6c-2.1-0.5-2.1-0.5-3.7,1.6
		c1.1,0,2.2,0,3.2,0c0,0.1,0.1,0.3,0.1,0.4c-1.4,0.6-2.7,1.2-4.7,2.1c1.5,0.7,2.3,1.1,3,1.4c0,0.2-0.1,0.4-0.1,0.6
		c-2,0-4.1-0.1-6.6-0.1c1.4-0.6,2.5-1.1,3.5-1.6c-0.1-0.2-0.1-0.5-0.2-0.7c-2.4,0.4-4.8,0.8-7.2,1.1c-0.1-0.2-0.1-0.4-0.2-0.6
		c1-0.6,2-1.1,3.1-1.8c-1-0.4-1.8-0.7-2.5-1c0-0.4,0-0.8,0-1.2c3.9-0.9,7.7-1.7,11.6-2.6c0.1,0.2,0.1,0.5,0.2,0.7
		c0.4-0.8,0.8-1.5,1.1-2c-5.1-0.4-10-0.9-15.2-1.3c2.9-2.1,3.2-2.9,2.2-4.6c-1.7,0.2-3.3,0.4-4.3,0.5c-0.3,0.5-0.6,0.9-0.9,1.3V282
		c0.4-0.2,0.8-0.5,1.2-0.7c-0.4-0.1-0.9-0.2-1.2-0.3v-1.6c1,0.2,2,0.4,3.1,0.7c0-0.6,0.1-1.1,0.1-1.7c-1-0.2-2.1-0.4-3.1-0.6v16.9
		l-0.1-11.5c-0.1,8.3-0.2-17.3-0.3-9c0,1.2-0.1,2.4-0.2,3.5c-1.2-0.2-2.3-0.4-3.5-0.5c-8.3-0.4-16.6-1.6-24.9-0.3
		c-4.7,0.8-6.3-0.5-7-5.3c-0.5-3.1-2.6-5.2-5.7-5.2s-6.2,0.1-8.9,0.1c0.4-1.6,1.2-3.2,1-4.7c-0.2-1.6-1.4-3-2.2-4.6
		c9.8,1.5,10.9,1.2,13.6-3.4c-1.2-1.3-2.1-2.5-3.1-3.6c-0.4-0.4-1-0.6-1.4-0.9c-2.6-2-6.3-2.7-7.6-6.3c0-0.1-0.3-0.1-0.5-0.1
		c-0.3,0.8-0.5,1.6-1.1,3.2c-0.7-1.8-1.2-2.9-1.6-3.9c-1.2,0.1-2.3,0.3-3.4,0.4c-0.3,0.8-0.6,1.5-0.9,2.4c-1.6-1.4-3-2.7-4.5-3.8
		c-1.6-1.3-2.2-2.5-0.8-4.3c1-1.3,1-2.8-0.7-3.9c-0.6-0.4-1.6-1.3-1.5-1.5c1.3-2.9-2.2-3.4-2.2-5.1c-2,0.7-3.6,1.2-5.2,1.7
		c-1.5,0.5-1.5,2.3-3.4,3.1c-2.5,0.9-4.6,1.9-7.3,1.6c-2.3-0.3-4.6,0-7,0c-1,0-2-0.1-3-0.1c0.1-1,0.2-2,0.3-2.7
		c-4.1-1.1-8.3-2.3-12.5-3.4c0.1-0.2,0.1-0.5,0.2-0.7c1.2,0.2,2.5,0.4,3.7,0.6c-0.3-0.6-1-0.8-1.2-1.2s0.1-1,0.2-1.5
		c1.9,1.9,3-0.9,4.5-0.8c2.7,0.3,5.3,1,7.8,1.4c-0.7-2,4.2-1,3.1-4c-0.6-1.7-1-3.5-1.4-5.2c-1.4,1-2.4,2.2-3.8,2.7
		c-3.5,1.4-7,2.5-10.6,3.6c-0.2,0.1-0.6-0.3-1-0.4c-2.4-1-4.8-0.9-7.3,0.1c-1.6,0.6-3.3,1-5,1.1c-0.9,0-1.9-1.2-2.8-1.2
		c-4.4-0.1-7.8-1.5-9.3-6.1c-0.9,0.5-1.6,0.8-2.3,1.2c-0.3-0.7-0.6-1.3-0.8-1.8c-0.2,0-0.4,0-0.7,0.1c-0.1,0.7-0.1,1.5-0.2,1.8
		c-4-1.4-7.5,1.2-11.3,1.6c-3.8,0.3-7.5,0.9-11.6,1.5c0-1.5,0.1-2.8,0.1-4.7c-3.3,2.2-5.8,6.4-10.8,3.9c1.3-0.9,2.2-1.6,3.3-2.4
		c-0.6-0.4-1.3-0.9-1.4-1c-1.7,1-3.1,1.9-4.5,2.7c0-0.4,0.1-0.8,0.1-1.2c-1-0.5-1.9-1-2.8-1.5c0.1,2,0.2,3.7,0.3,5.5
		c-2.2-0.3-3.8-3.6-5.1,0.2c-0.1,0.3-1.4,0.2-2.2,0.1c-1-0.1-1.9-0.6-2.9-0.6c-1.8,0.1-3.6,0.5-5.3,0.8c-0.2-0.9-0.4-1.8-0.5-2.2
		c-2,0.7-3.6,1.3-5.3,1.9c-0.2-0.9-0.4-1.9-0.6-2.7c-1.8,1.9-3.7,3.8-4.8,4.9c-3.9,0-7.2,0.1-10.7,0.1c-0.9,1.7-2,2.3-4,0.4
		c-0.8-0.7-2.6-0.3-4-0.1c-1.1,0.1-2.1,0.7-3.1,1.1c-0.1-0.3-0.2-0.5-0.3-0.8c-0.3,0.5-0.6,1.1-0.9,1.8c-0.6-0.8-0.9-1.7-1.4-1.7
		c-1.9-0.2-3.9-0.2-5.8-0.2c-0.6,0-1.2,0.5-1.6,0.9c-1.5,1.5-2.9,3-4.9,1.9c-0.6,0.7-1.1,1.3-1.6,1.8c-0.6-0.6-1.2-1.2-1.3-1.3
		c-1.7,0-3.1,0.1-4.5,0c-0.6,0-1.3-0.7-1.9-0.6c-2.6,0.4-5.1,1.2-7.7,1.4c-2.9,0.3-5.7,0.1-8.8,0.2c0,0.1-0.4,0.8-0.9,0.9
		c-0.5,0.1-1.1-0.5-1.7-0.7c-0.9-0.4-1.7-1.2-2.6-1.2c-3.6,0.2-7.1,0.7-10.7,1c-0.2-0.3-0.3-0.6-0.5-0.8c-0.2,0.3-0.5,0.6-0.7,0.9
		h-0.1c-4.6,0.4-9.2,0.6-13.9,0.9c0.1-0.6,0.2-1.2,0.1-1.8c-0.2-1.7,1-2.7,2.1-2.1c2,1.2,2.6-0.2,3.7-1.2c1.7-1.7,3.5-3.4,6.2-1.4
		c1.6,1.2,2.9,0.4,3.7-1.2c0.3-0.5,0.1-1.2,0.1-2c-1.2,0.6-2.6,1.2-4,1.8c-0.5-0.3-1.4-0.8-2.3-1.3c0.7-0.5,1.3-0.9,2-1.3
		c-0.1-0.3-0.2-0.5-0.3-0.8c-1.7,0.4-3.3,0.8-5.1,1.2c0.4-0.6,0.7-1.2,1-1.6c-2.2,1.1-4.4,2.2-6.6,3.4c-2,1.1-3.9,2.3-5.9,3.4
		c-1.1,0.6-2.1,1.4-3.2,1.6c-2.8,0.5-5.6,0.6-8.4,0.9c-0.8,0.1-1.7,0.2-2.4-0.1c-2.6-1.2-4.7-0.3-6.3,1.5c-1.5,1.6-2,1-3-0.4
		c1.1-0.3,2-0.6,2.9-0.9c0.1-1.1,0.5-2.1,1.2-2.6c1.1-0.7,2.6-0.8,3.6-1.6c4.2-3.2,9-5.9,11.6-10.8c0.7-1.4,1.2-2.9,1.9-4.7
		c-4.7,1-8.7,1.8-13.4,2.8c1.2,0.6,1.6,0.8,2.5,1.3c-2.5,1.9-4.7,3.8-7,5.4c-1.3,0.9-3,1.3-4.5,2c-0.6,0.3-1.5,0.9-1.4,1.1
		c0.5,2-1.2,2.3-2.2,3.3c-0.2,0.2-0.4,0.6-0.6,1c0.7,0.5,1.3,0.9,2,1.3c-0.2,0.9-0.4,1.8-0.8,3.1c-0.6-0.9-1-1.5-1.5-2.4
		c-0.4,1-0.8,1.8-1.1,2.5c-5.4,0-10.8,0.3-16.1-0.2c-3.5-0.3-7.2,1.9-10.5-0.5h0.1l0,0c0.1-0.1,0.2-0.2,0.3-0.3
		c-0.2,0-0.3,0.2-0.4,0.3l0,0c-0.6,0-1.2,0-2,0c0.6,0.5,0.9,0.8,1.3,1.1c0,0.3,0,0.6-0.1,0.9c-2.5,0.1-5.1,0.1-8.7,0.2
		c-2,1.9-7.2,1.5-9.6,6.8c3.6-1.4,5.8-0.4,6.8,3.5c-1.1-0.2-2.1-0.3-2.9-0.6c-1.8-0.8-1.9,0.3-1.5,1.5c0.3,0.8,0.9,1.5,1.6,2.6
		c-4.5,1.2-9,2.4-13.5,3.5c-0.1-0.2-0.2-0.4-0.3-0.7c0.7-0.7,1.5-1.4,2.2-2.2c-0.1-0.3-0.2-0.5-0.3-0.8c-2.2,2.3-4.6,3.4-7.2,1.3
		c0.9-1.4,1.7-2.7,2.3-3.8c-0.4-0.5-0.7-0.7-0.8-1c-0.2-0.7-0.1-1.6-0.5-2c-0.8-0.7-2.4-0.9-2.6-1.7c-0.3-0.9,0.6-2.1,1-3.4
		c-1.2,0.5-2.7,0.8-3.3,1.7c-0.4,0.5-0.3,1.4-0.3,2.3c-0.2-0.1-0.4-0.2-0.7-0.3c-0.2,0-0.4,0-0.5,0c-0.8-0.7-1.6-0.6-2.3,1.1
		c-0.1,0.1-0.2,0.1-0.4,0.2c0,0,0,0,0-0.1c1-1.9,1.6-3.7-1.9-3.1c0.6-0.7,1.1-1.3,1.5-1.8c-2.2-1.3-4.3-2.5-6.5-3.9
		c-0.5,0.2-1.4,0.5-2.4,0.9c0.1-1.1,0.1-2,0.2-2.8c-2.5-0.8-3.8,2.7-6.2,1.2c-0.2,0.6-0.6,1.1-0.7,1.7c0,0.9,0.2,1.8,0.4,3.1
		c-1.6-1-2.9-1.8-4.7-2.9c-0.5,3.5-0.9,6.1-1.3,8.9c1.2,0.4,2.1,0.7,3.8,1.4c-2.6,1-4.4,1.8-6.2,2.5c0.1,0.2,0.2,0.4,0.3,0.7
		c1.3-0.1,2.5-0.2,3.8-0.3c-0.3,1.5-0.7,2.5-0.7,3.5c-0.1,1.6-0.8,2.1-2.2,1.5c-3.2-1.5-4.5,0.4-5.3,2.9c-0.5,1.4-0.5,2.9-0.9,4.3
		c-0.3,1.2-0.8,2.4-1.5,4.3c-4.5-6.7-11.4-10.8-11.8-18.9c0-0.1-0.1-0.2-0.1-0.3c-1-3.5-2.2-6.9-3.1-10.4c-0.8-3.1-1.4-6.2-4.3-8.2
		c-0.2,0.3-0.3,0.6-0.6,1.2c-1-1.8-1.8-3.4-2.7-4.9c-0.1,0.1-0.3,0.1-0.4,0.2c0.8,2,1.6,3.9,2.5,6.2c-1.9,0.4-3.6,0.7-5.3,1
		c-0.3-1-0.3-1.7-0.6-2.3c-1.4-2.5-2.7-5-4.3-7.4c-0.8-1.2-2-2.3-3.2-3.1c-0.9-0.6-2.2-0.6-3.3-0.8c-0.7-0.2-1.8-0.8-2.1-0.5
		c-2,1.9-2.5,0.2-3.3-1.1c-1.6-2.9-3.1-5.8-4.8-8.6c-0.4-0.7-1.4-1.4-2.1-1.3c-2.5,0.2-5,0.9-7.5,1.2c-3.3,0.5-4.7,1.8-4.3,5.3
		c0.3,2,1.3,4,2,6.1c-2.7,1.3-2.7,4-0.7,7.9c-2.1-0.2-3.6-0.4-5-0.5c-1.8-0.2-3.6-0.2-4.6-2.5c-1.1-2.6-3-4.9-4.6-7.4
		c-3.4-5.3-7-10.5-10.1-16c-3.3-5.9-8.3-7.9-14.6-7.1c-0.7,0.1-1.7,0.4-2,1c-0.5,0.9-1.2,2.4-0.8,3.2c0.8,1.8,1.8,3.7,3.3,4.8
		c1.3,1,3.2,2.2,3.5,3.9c0.4,2.1,0.4,2.1,2.9,2.7c-0.5-1-0.9-2-1.3-2.9c0.1-0.1,0.2-0.2,0.3-0.3c1.1,1,2.3,2,3.8,3.4
		c0-1.7,0-2.5,0.1-3.4c0.2,0,0.4-0.1,0.6-0.1c0.8,1.9,1.6,3.7,2.6,6c-1.2-1-2-1.8-2.9-2.5c-0.2,0.2-0.4,0.3-0.5,0.5
		c1.3,2,2.7,4.1,4,6.1c-0.2,0.1-0.3,0.3-0.5,0.4c-0.9-0.7-1.9-1.4-2.9-2.1c0,1.1,0.1,1.9,0.1,2.7c-0.4,0.2-0.7,0.3-1.1,0.5
		c-2.4-3.2-4.8-6.3-7.1-9.5c0.2-0.2,0.4-0.3,0.5-0.5c-0.9-0.1-1.7-0.1-2.3-0.1c1.7,4.8,3.3,9.5,5,14.4c-0.8-0.5-1.4-0.8-2-1l0,0
		c0,0,0,0-0.1,0c-0.8-0.3-1.4-0.4-1.9-0.2c-0.9-0.1-1.8-0.2-2.7-0.2s-1.9,0-2.6,0.4c-1.4,0.9-2.7,2.1-3.9,3.3
		c-1.6,1.6-1.9,0.4-2.3-1.1c-0.5,0.5-1,1-1.5,1.5c0.6,0.4,1.1,0.7,1.9,1.3c-2,1.2-3.8,2.2-5.5,3.3v-0.1l0,0c0,0,0,0,0,0.1
		c-0.5,0.4-0.9,0.8-1.4,1.1c-1.6,0.8-3.2,1.4-4.8,2.2c-0.8,0.4-1.5,1.1-2.2,1.7c-2.7,2.2-5.3,4.5-8.2,6.9c-3.1-2-6.1-1.8-9,1.5
		c-2.4,2.8-5.3,5.1-8.5,8.1c0,2.8-3.8,6.5-7.8,7.1c-1.1,0.2-2.9,1.7-2.9,2.6c-0.1,2.5-1.5,3.8-3.2,5.1c-1.6,1.3-3,2.7-4.6,4
		c-0.6,0.4-1.5,0.5-2.2,0.7c0-0.6,0-1.3,0-2c-1.5,0.1-3,0.3-4.5,0.4c0-0.1,0-0.2-0.1-0.3c1.3-0.5,2.6-1.1,3.9-1.6
		c-0.1-0.3-0.2-0.5-0.3-0.8c-2.7,1.1-5.6,2.1-8.2,3.3c-3.2,1.5-5.2,1.3-6.7-1.4c-1.2-2.2-2.8-3.5-5.5-3.5c-2.9,0.1-4.1,2.3-5.4,4.3
		c-1.3,1.9-2.3,4-3.5,6c-0.2-0.2-0.4-0.5-0.6-0.7c-1,0.4-2,0.7-2.8,1.3c-2.7,1.8-5.3,3.8-8,5.6c-1.2,0.8-2.7,1.3-4.2,2
		c1.2-7,3.4-14.7-1.8-20.9c0.9-0.7,1.9-1.3,2.4-2.1c2.8-4.3,5.4-8.7,8.2-13c3.2-4.7,6.5-9.4,11.7-12.2c0.5-0.2,1-1.2,0.8-1.6
		c-0.5-1.8-0.8-3.9-1.9-5.2c-1.9-2.2-3.8-4.5-6.4-6.3c-2.6-1.8-3.9-1.9-6.1-0.2c0.1-1.4,0.1-2.5,0.2-3.5c-0.2,0-0.4-0.1-0.5-0.1
		c-0.6,1-1.2,2.1-1.8,3.1c-0.2-0.1-0.3-0.1-0.5-0.2c0.3-1.7,0.6-3.3,1-5.4c-2.8,1.2-2.7-0.4-2.3-2c-0.8,0.1-1.9,0.2-1.9,0.2
		c-0.4-2.9-2.7-1.1-4.4-1.8c0.7-0.9,1.4-1.8,2.6-3.3c-4.1,1.2-6.5,3.5-8.8,5.9c0,0,0.6,0.6,0.9,1c-4.8,0.3-3.6,5.9-7.1,7.2
		c1,0.7,1.6,1.2,2.3,1.7c-0.1,0.2-0.2,0.4-0.2,0.5c-1-0.2-1.9-0.3-2.6-0.4c0.3,1.7,0.7,3.4,1,5.1c-1.1,0.3-1.8,0.4-2.5,0.6
		c0.3,0.7,0.5,1.3,0.7,1.9c-1-0.2-2-0.5-2.4-0.6c-0.3,1.7-0.2,3.6-1,5c-0.8,1.2-2.6,1.6-3.8,2.3c0.2-0.8,0.5-2,0.8-3.1
		c-0.2,0-0.3-0.1-0.5-0.1c-2.9,5.3-5.7,10.7-8.5,15.8c-1.7-0.5-3.3-0.6-4.3-1.4c-3.2-2.6-3.4-2.9-5.8,0.1c-1.8,2.2-5.7,3.1-5,7.2
		c0.1,0.9-1.2,2.7-2,2.8c-1.7,0.1-1.4,0.7-1.5,2c-0.1,2.2-2.4,3-4.3,1.5c1.2-1.8,3.3-3.5,2.1-5.8c-1-2-1.5-3.8-1.2-6
		c0-0.2-0.2-0.5-0.4-0.7c-1.2-1.4-8.1-2.7-9.8-1.9c-1.6,0.7-2.6,0.8-3.6-1.3c-0.6-1.3-2.4-2.1-3.9-3c2.6-3.4,5.1-6.7,7.9-9.9
		c4.4-5.1,4.6-10.4,1.7-16.2c-0.3-0.7-1-1.5-1.6-1.6c-1.1-0.2-2.6-0.3-3.3,0.3c-1.4,1.3-2.8,3-3.4,4.7c-0.5,1.5-1,3.7-2.5,4.6
		c-1.9,1.1-1.9,1.1-1.6,3.7c0.8-0.8,1.6-1.5,2.3-2.2c0.1,0.1,0.2,0.1,0.4,0.2c-0.6,1.4-1.1,2.8-1.9,4.8c1.6-0.5,2.4-0.8,3.2-1.1
		c0.1,0.2,0.2,0.3,0.3,0.5c-1.5,1.4-3,2.8-4.8,4.5c0.6-1.4,1-2.5,1.4-3.6c-0.2-0.1-0.4-0.2-0.6-0.4c-1.5,1.9-3,3.9-4.4,5.8
		c-0.2-0.1-0.3-0.2-0.5-0.3c0.3-1.1,0.6-2.2,1-3.4c-1,0.4-1.8,0.7-2.5,1c-0.3-0.3-0.6-0.6-0.8-0.8c2.2-3.3,4.4-6.6,6.5-9.9
		c0.2,0.1,0.4,0.2,0.6,0.3c-0.2-0.8-0.5-1.7-0.6-2.2c-3.5,2.8-6.9,5.6-10.4,8.4c-0.4-0.2-0.8-0.4-1.2-0.6c0-0.5,0.1-0.9,0-1.3
		c0.4-0.3,0.8-0.7,1.3-1.2c-1.4-0.4-2.4-0.7-3.3-0.9c-0.2,0.2-0.3,0.4-0.5,0.6c0.1,0.1,0.1,0.2,0.2,0.2c-0.9,1.1-1.7,2.1-2.3,2.8
		c0.2,1.2,0.4,2.1,0.6,3.1c-0.3,0.2-0.5,0.4-0.8,0.6c-0.7-1.8-1.4-2.5-2.5-0.5c-0.8,1.4-2.1,2.5-3,3.8c-1,1.5-4.1,2.4-5.7,1.3
		c1.1-0.9,2.2-1.7,3.7-2.9c-1.5-0.3-2.4-0.5-4-0.8c1.4-0.6,2.1-0.8,2.8-1.1c-0.2-0.1-0.4-0.3-0.6-0.4c1.2-1.9,2.3-3.8,3.4-5.6
		c-0.9-0.5-1.9-1-2.9-1.5c0.4-1.4,0.8-2.7,1.2-4.3c-1.5,0.9-2.5,1.5-3.6,2.2c-0.3-0.4-0.7-0.8-1-1.1c1.7-1,3.4-2.1,5.1-3.1
		c-0.4-0.4-0.8-0.9-1.1-1.3c-2,1.4-4.2,2.6-6.1,4.2c-6.3,5.4-13.1,10.3-18.1,17.1c-2.9,3.8-4.9,4-8.7,1.1c-2.5-1.9-5.5-1.9-7.7,0.3
		c-2.2,2.1-4.4,4.4-6.3,6.2c-0.8-1.4-1.3-3.1-2.5-4.1s-3.1-1.2-4.8-1.8c8.2-5.7,8.7-6.7,7.5-11.9c-1.8-0.2-3.3-0.3-4.8-0.4
		c-0.5,0-1.1,0.3-1.6,0.3c-3.3,0.3-6.4,2.4-9.8,0.7c-0.1,0-0.3,0.2-0.4,0.3c0.4,0.7,0.7,1.5,1.5,3c-1.8-0.8-2.8-1.3-3.8-1.7
		c-0.8,0.9-1.5,1.8-2.1,2.6c0.3,0.8,0.7,1.5,1,2.3c-2.1,0.1-4,0.2-5.9,0.4c-2.1,0.2-3.3-0.3-3.6-2.6c-0.2-1.7-1.2-2.8-3.2-2.3
		c-0.7,0.2-2,0.2-2.1,0c-1.1-3-3.9-0.9-5.1-2.2c-1,1.8-1.8,3.3-2.6,4.9c-0.7,1.4,0.6,2.7-0.3,4.6c-1.1,2.4-2,4.6-4.2,6.2
		c-1.9,1.4-3.4,3.2-5,4.8c-0.7,0.7-1.5,1.4-2.2,2c-0.6-0.8-1.2-1.6-1.7-2.2c-3.7,2-7.5,4.1-11.4,6.2c-0.1-0.2-0.2-0.4-0.4-0.7
		c1-0.7,2.1-1.4,3.1-2.2c-0.7-0.2-1.3,0.1-1.7,0c-0.4-0.2-0.6-0.8-0.9-1.3c2.7,0.1,1.5-2.7,2.7-3.6c2.2-1.6,4.5-3,6.6-4.4
		c-1.8-1,2.4-3.6-0.5-5c-1.6-0.8-3.1-1.8-4.6-2.8c-0.3,1.7-0.2,3.3-0.8,4.6c-1.5,3.4-3.4,6.7-5.1,9.9c-0.1,0.2-0.6,0.2-1,0.4
		c-2.5,0.9-4.1,2.7-5.2,5.1c-0.7,1.5-1.7,3-2.9,4.2c-0.7,0.7-2.2,0.4-2.9,1.1c-3.2,3-6.7,4.3-10.9,2c-0.3,1-0.6,1.7-0.8,2.5
		c-0.7-0.3-1.3-0.5-1.8-0.7c-0.1,0.2-0.3,0.3-0.4,0.5c0.5,0.6,0.9,1.1,1.1,1.4c-3.9,1.7-4.6,6.1-7,9c-1,1.2-2.1,2.5-3.1,3.7
		c-0.2-0.3-0.5-0.6-0.7-0.9c-0.5,0-1.4,0-2.6,0c0.5-1,0.8-1.8,1.2-2.6c-2.1-1.6-4.5,1.2-6.3-0.9c-0.4,0.5-1,0.8-1.2,1.4
		c-0.3,0.8-0.4,1.8-0.7,3.1c-1.2-1.5-2.1-2.7-3.5-4.4c-1.6,3.1-2.9,5.5-4.2,7.9c0.9,0.8,1.7,1.4,3.1,2.6c-2.8,0.1-4.7,0.2-6.7,0.3
		c0,0.2,0,0.5,0,0.7c1.2,0.3,2.4,0.6,3.7,1c-0.8,1.3-1.5,2.1-1.8,3c-0.6,1.4-1.5,1.7-2.6,0.7c-2.5-2.5-4.3-1.1-6,0.9
		c-0.9,1.1-1.5,2.5-2.3,3.7c-0.7,1-1.6,2-2.9,3.6c-2-7.8-7-14-4.7-21.8c0-0.1,0-0.2,0-0.3c0.2-3.6,0.3-7.2,0.6-10.8
		c0.3-3.2,0.8-6.3-1.3-9.2c-0.3,0.3-0.5,0.5-1,0.9c-0.3-2-0.6-3.8-0.9-5.6c-0.2,0-0.3,0-0.5,0c0.1,2.1,0.2,4.2,0.3,6.7
		c-2-0.3-3.6-0.6-5.3-0.8c0.1-1.1,0.3-1.7,0.2-2.4c-0.4-2.8-0.8-5.7-1.5-8.4c-0.3-1.4-1-2.9-1.9-4c-0.6-0.9-1.9-1.3-2.8-1.9
		c-0.6-0.4-1.4-1.3-1.8-1.2c-2.5,1.1-2.4-0.7-2.7-2.2c-0.5-3.2-1-6.5-1.6-9.7c-0.2-0.8-0.9-1.8-1.5-2c-2.5-0.6-5-0.9-7.5-1.4
		c-3.3-0.7-5.1,0.1-5.8,3.5c-0.5,2-0.2,4.2-0.2,6.4c-2.9,0.3-3.9,2.8-3.4,7.2c-1.9-0.9-3.2-1.5-4.5-2.2c-1.7-0.8-3.3-1.4-3.4-3.9
		c-0.2-2.9-1.2-5.7-1.8-8.5c-1.4-6.2-3-12.3-4.1-18.5c-1.2-6.6-5.1-10.2-11.4-11.6c-0.7-0.2-1.8-0.2-2.2,0.2
		c-0.8,0.7-1.9,1.8-1.9,2.7c0.1,1.9,0.5,4.1,1.5,5.6c0.9,1.3,2.3,3.1,2,4.9c-0.4,2.1-0.4,2.1,1.8,3.5c-0.1-1.1-0.2-2.2-0.2-3.2
		c0.1-0.1,0.3-0.1,0.4-0.2c0.7,1.3,1.4,2.6,2.5,4.5c0.6-1.5,0.9-2.3,1.2-3.1c0.2,0,0.4,0,0.6,0.1c0.1,2,0.2,4.1,0.4,6.6
		c-0.7-1.4-1.3-2.4-1.8-3.4c-0.2,0.1-0.5,0.2-0.7,0.3c0.6,2.4,1.1,4.8,1.7,7.1c-0.2,0.1-0.4,0.1-0.6,0.2c-0.6-1-1.3-1.9-2-2.9
		c-0.3,1-0.6,1.8-0.8,2.6c-0.4,0-0.8,0.1-1.2,0.1c-1.2-3.8-2.3-7.6-3.5-11.4c0.2-0.1,0.4-0.2,0.7-0.3c-0.8-0.3-1.6-0.7-2.1-0.9
		c-0.1,5.1-0.1,10.1-0.2,15.3c-2.3-2.8-3.1-3-4.7-1.9c0.3,1.7,0.7,3.2,0.9,4.3c1.1,0.6,1.9,1,2.8,1.5c0,0.3,0,0.6-0.1,1
		c-1.9-0.6-2.8-0.5-2,1.6c0.6,1.5,0.6,3.2,1.1,4.7c0.6,1.7-0.7,4.7-2.6,5.2c0-1.4,0.1-2.8,0.1-4.7c-1.2,0.9-1.9,1.5-3.2,2.6
		c0.4-1.4,0.7-2.1,0.9-2.9c-0.2,0.1-0.5,0.1-0.7,0.2c-0.6-1.9-1.3-3.7-1.9-5.5c1-1.1,1.9-2.2,2.9-3.4c0.5-0.6,0.8-1.8,0.6-2.4
		c-1.1-2.3-2.5-4.4-3.7-6.7c-1.6-3-3.3-3.8-6.4-2.3c-1.8,0.9-3.3,2.5-5.1,3.9c-2.1-2.1-4.7-1.2-7.7,2c-0.5-2.1-0.9-3.5-1.2-4.9
		c-0.4-1.8-1.1-3.4,0.8-5.1c2.1-1.9,3.6-4.5,5.4-6.8c3.9-5,7.6-10.1,11.7-14.9c4.4-5.1,4.6-10.4,1.7-16.2c-0.3-0.7-1-1.5-1.6-1.6
		c-1.1-0.2-2.6-0.3-3.3,0.3c-1.4,1.3-2.8,3-3.4,4.7c-0.5,1.5-1,3.7-2.5,4.6c-1.9,1.1-1.9,1.1-1.6,3.7c0.8-0.8,1.6-1.5,2.3-2.2
		c0.1,0.1,0.2,0.1,0.4,0.2c-0.6,1.4-1.1,2.8-1.9,4.8c1.6-0.5,2.4-0.8,3.2-1.1c0.1,0.2,0.2,0.3,0.3,0.5c-1.5,1.4-3,2.8-4.8,4.5
		c0.6-1.4,1-2.5,1.4-3.6c-0.2-0.1-0.4-0.2-0.6-0.4c-1.5,1.9-3,3.9-4.4,5.8c-0.2-0.1-0.3-0.2-0.5-0.3c0.3-1.1,0.6-2.2,1-3.4
		c-1,0.4-1.8,0.7-2.5,1c-0.3-0.3-0.6-0.6-0.8-0.8c2.2-3.3,4.4-6.6,6.5-9.9c0.2,0.1,0.4,0.2,0.6,0.3c-0.2-0.8-0.5-1.7-0.6-2.2
		c-4,3.2-7.8,6.3-11.9,9.6c0.7-3.6,0.3-4.3-1.6-4.8c-1.1,1.4-2.1,2.6-2.7,3.4c0.2,1.2,0.4,2.1,0.6,3.1c-0.3,0.2-0.5,0.4-0.8,0.6
		c-0.7-1.8-1.4-2.5-2.5-0.5c-0.8,1.4-2.1,2.5-3,3.8c-1,1.5-4.1,2.4-5.7,1.3c1.1-0.9,2.2-1.7,3.7-2.9c-1.5-0.3-2.4-0.5-4-0.8
		c1.4-0.6,2.1-0.8,2.8-1.1c-0.2-0.1-0.4-0.3-0.6-0.4c1.2-1.9,2.3-3.8,3.4-5.6c-0.9-0.5-1.9-1-2.9-1.5c0.4-1.4,0.8-2.7,1.2-4.3
		c-1.5,0.9-2.5,1.5-3.6,2.2c-0.3-0.4-0.7-0.8-1-1.1c1.7-1,3.4-2.1,5.1-3.1c-0.4-0.4-0.8-0.9-1.1-1.3c-2,1.4-4.2,2.6-6.1,4.2
		c-6.3,5.4-13.1,10.3-18.1,17.1c-2.9,3.8-4.9,4-8.7,1.1c-2.5-1.9-5.5-1.9-7.7,0.3c-2.2,2.1-4.4,4.4-6.3,6.2
		c-0.8-1.4-1.3-3.1-2.5-4.1s-3.1-1.2-4.8-1.8c8.2-5.7,8.7-6.7,7.5-11.9c-1.8-0.2-3.3-0.3-4.8-0.4c-0.5,0-1.1,0.3-1.6,0.3
		c-3.3,0.3-6.4,2.4-9.8,0.7c-0.1,0-0.3,0.2-0.4,0.3c0.4,0.7,0.7,1.5,1.5,3c-1.8-0.8-2.8-1.3-3.8-1.7c-0.8,0.9-1.5,1.8-2.1,2.6
		c0.3,0.8,0.7,1.5,1,2.3c-2.1,0.1-4,0.2-5.9,0.4c-2.1,0.2-3.3-0.3-3.6-2.6c-0.2-1.7-1.2-2.8-3.2-2.3c-0.7,0.2-2,0.2-2.1,0
		c-1.1-3-3.9-0.9-5.1-2.2c-1,1.8-1.8,3.3-2.6,4.9c-0.7,1.4,0.6,2.7-0.3,4.6c-1.1,2.4-2,4.6-4.2,6.2c-1.9,1.4-3.4,3.2-5,4.8
		c-0.7,0.7-1.5,1.4-2.2,2c-0.6-0.8-1.2-1.6-1.7-2.2c-3.7,2-7.5,4.1-11.4,6.2c-0.1-0.2-0.2-0.4-0.4-0.7c1-0.7,2.1-1.4,3.1-2.2
		c-0.7-0.2-1.3,0.1-1.7,0c-0.4-0.2-0.6-0.8-0.9-1.3c2.7,0.1,1.5-2.7,2.7-3.6c2.2-1.6,4.5-3,6.6-4.4c-1.8-1,2.4-3.6-0.5-5
		c-1.6-0.8-3.1-1.8-4.6-2.8c-0.3,1.7-0.2,3.3-0.8,4.6c-1.5,3.4-3.4,6.7-5.1,9.9c-0.1,0.2-0.6,0.2-1,0.4c-2.5,0.9-4.1,2.7-5.2,5.1
		c-0.7,1.5-1.7,3-2.9,4.2c-0.7,0.7-2.2,0.4-2.9,1.1c-3.2,3-6.7,4.3-10.9,2c-0.3,1-0.6,1.7-0.8,2.5c-0.7-0.3-1.3-0.5-1.8-0.7
		c-0.1,0.2-0.3,0.3-0.4,0.5c0.5,0.6,0.9,1.1,1.1,1.4c-3.9,1.7-4.6,6.1-7,9c-2.5,2.9-4.7,5.9-7.4,9.1c-1-1.1-1.9-2.1-3.2-3.5
		c-0.8,3.9,0.3,8.6-5.1,10.3c0.3-1.5,0.5-2.7,0.7-4c-0.8,0.1-1.5,0.2-1.6,0.3c-0.5,1.9-0.9,3.5-1.3,5.1c-0.2-0.3-0.5-0.6-0.7-0.9
		c-1,0.3-2.1,0.6-3,0.9c1.4,1.3,2.7,2.5,4.1,3.8c-1.8,1.3-5.2,0-3.6,3.7c0.1,0.3-0.9,1.1-1.5,1.6c-0.8,0.6-1.8,0.9-2.5,1.6
		c-1.2,1.3-2.2,2.9-3.3,4.3c-0.8-0.5-1.5-1-1.9-1.3c-0.9,1.9-1.7,3.5-2.5,5c-0.8-0.5-1.6-1-2.3-1.5c0,2.6,0,5.3,0,6.9
		c-2.8,2.7-5.1,5-7.6,7.5c0.5,1.8,0.2,3-2.6,3.1c-1,0-2.1,1.6-2.9,2.6c-0.7,0.8-1,1.9-1.5,2.9c-0.3-0.1-0.5-0.2-0.8-0.3
		c0.2,0.6,0.3,1.2,0.6,1.9c-0.9-0.2-1.8-0.6-2.2-0.3c-1.5,1.2-3,2.5-4.3,3.9c-0.4,0.4-0.5,1.2-0.5,1.8c0,2.1,0,4.2-2.2,4.8
		c0,1,0.1,1.7,0.1,2.5c-0.8,0-1.7,0-1.9,0c-1.2,1.2-2.2,2.2-3.2,3.1c-0.5,0.4-1.4,0.4-1.8,0.9c-1.6,2.1-2.9,4.4-4.6,6.4
		c-1.9,2.2-4,4.1-6.2,6.2c0,0.1,0.3,0.9,0,1.3c-0.3,0.4-1.1,0.4-1.7,0.6c-0.4-0.3-1.6-0.3-2.1,0.3c-2.7,3-5.2,6.1-7.9,9.1
		c-3.2,3.6-6.5,7.1-9.8,10.8c-1.3-0.4-2.9-0.9-4.7-1.4c1.2,5.2,2.4,10,4,14.7c1.9,2.2,4.1,5,8.1,1.9c-0.5,1.5-0.8,2.4-1.2,3.4
		c0.2,0.1,0.4,0.2,0.5,0.3c2-2.7,4-5.4,5.8-7.8c1.6,0.7,2.9,1.2,4.2,1.8c-0.4,0.5-0.8,1-1.2,1.4c1.9,0.9,3.7,1.8,5.4,2.7
		c-0.3-0.3-0.5-0.7-0.8-1c2.1-1.6,4.2-3.2,6.2-4.8c3.3-2.6,6.9-4.9,9.8-7.8c2.1-2.1,5-3.4,6.5-6.2c0.8-1.4,2.6-2.3,4.3-3.7
		c1.6,1.9,3.3,4,4.9,5.9c-0.8,0.5-2.5,1.3-2.4,1.5c0.7,1.9-0.7,2.3-1.9,3c-0.2,0.1-0.3,0.5-0.4,0.7c-0.9,1.6-1.4,3.4-2.6,4.7
		c-1.9,2.1-2.9,8.2-1.1,10.3s3.6,4.1,5.9,6.7c-1,0.7-2.2,1.6-3.5,2.6 M-8.2,371.8c0.6-0.2,1.1-0.4,1.7-0.5 M-19.5,370.4
		c0.6-0.4,1.5-0.3,2.3-0.5c-0.1,0.6-0.1,1.3-0.2,2c1.5,0,3,0,4.5,0 M-25.9,348.9c-0.6-3,1.3-6.4,5-9
		C-19.8,345.1-20.5,346.2-25.9,348.9z M144.8,186.9c-0.4-0.4-0.8-0.8-1.2-1.2c1.6-0.9,3.3-1.9,4.9-2.8c-0.2-0.4-0.5-0.8-0.7-1.2
		c-1.2,0.1-2.4,0.2-3.9,0.4c0.7-1.1,1.2-2,1.4-2.4c1.9,0.2,3.2,0.3,4.6,0.4c0.1,0.5,0.4,1.1,0.2,1.3
		C148.4,183.4,146.6,185.2,144.8,186.9z M186,237c0.3-1.9,0.6-3.7,1-5.6c-0.3,0-0.6-0.1-0.8-0.1c0.3-0.3,0.6-0.7,0.9-1
		c0.3,2.2,0.5,4.3,0.7,6.5C187.1,236.9,186.5,237,186,237z M449.8,227.9c-0.4-0.4-0.8-0.8-1.2-1.2c1.6-0.9,3.3-1.9,4.9-2.8
		c-0.2-0.4-0.5-0.8-0.7-1.2c-1.2,0.1-2.4,0.2-3.9,0.4c0.7-1.1,1.2-2,1.4-2.4c1.9,0.2,3.2,0.3,4.6,0.4c0.1,0.5,0.4,1.1,0.2,1.3
		C453.4,224.4,451.6,226.2,449.8,227.9z M549.1,231.6c1-0.2,2-0.5,3-0.7c0.1-1.3,0.2-2.9,0.4-4.7c0.7,0.6,1.4,1.2,2.1,1.8
		c1.4-1.1,1.4-1.1-1.4-2.3l4.9-1C556.1,230.5,554.6,231.8,549.1,231.6z M607.5,293.7c-1.5-5-1-6.2,4.2-9.4
		C612.5,287.3,610.9,290.9,607.5,293.7z M674.1,224.1c0.2-0.2-0.3-1-0.4-1.5c-0.3-0.1-0.6-0.1-0.9-0.2c0.6-0.5,1.1-0.9,1.7-1.4
		c-0.5-0.3-1-0.5-1-0.6c0.1-0.3,0.1-0.6,0.2-0.9l0,0c1.2,0.2,2.1,0.3,3.1,0.5c0.1,0.3,0.2,0.6,0.3,0.9c-2,0.1-2.8,0.5-1.3,2.1
		c0.1,0.1,0.2,0.3,0.3,0.4c-2,1.7-3.5,4-3.1,5.5c-0.6-0.8-1.2-1.5-1.8-2.2C672.1,226,673.1,225,674.1,224.1z M668.8,228.6
		c0.8,1.7,1.7,3.4,2.5,5.2c-0.5,0.2-1,0.5-1.5,0.7c-0.3-1.9-0.7-3.7-1-5.6c-0.2,0.1-0.5,0.1-0.7,0.2
		C668.3,228.9,668.5,228.7,668.8,228.6z M667.4,229.5c-0.3,1.1-0.6,2.2-0.9,3.5l0,0C665.7,231.3,666.3,230.3,667.4,229.5z
		 M669.6,261.9c-2.7,1.7-3.6,4.5-2.4,7.4c0.7,1.7,1.5,3.3,2.3,4.9c-0.3,0.6-0.7,1.1-1,1.6c-1.7-0.5-3-1-4.4-1.4
		c0.4-0.5,0.7-1,1.1-1.5c-2-0.8-3.8-1.5-5.7-2.3c0.3,0.3,0.6,0.6,0.9,0.9c-0.4,0.4-0.8,0.8-1.3,1.1c-1.1-1-2.5-1.3-4.8-1.6
		c-0.8,1.6-1.4,3-2,4.3c-0.2,0.5-0.1,1.1-0.2,1.6c-0.2,0.7-0.3,1.5-0.3,2.3c-2.2,1.9-4.4,3.9-6.3,6.1c-1.9,2.3-4.6,3.8-6,6.8
		c-0.7,1.5-2.4,2.5-3.9,4c-1.7-1.7-3.6-3.7-5.4-5.5c0.8-0.6,2.3-1.5,2.3-1.7c-0.8-1.9,0.5-2.4,1.6-3.1c0.2-0.1,0.3-0.5,0.4-0.8
		c0.7-1.7,1.1-3.5,2.2-4.9c1.7-2.2,2.1-8.4,0.2-10.4c-1.9-1.9-3.9-3.8-6.4-6.1c0.9-0.8,2.1-1.8,3.3-2.9c1.1-0.9,2.3-1.7,3.3-2.7
		c0.7-0.7,1.3-1.6,1.9-2.4c0.3,0.1,0.5,0.3,0.8,0.4c-0.2-0.5-0.4-0.9-0.6-1.6c0.8,0,1.6,0.1,2,0.1c-0.1-1-0.6-2.3-0.2-2.7
		c1.4-1.3,3-2.3,4.6-3.4h-0.1c2.2-1.8,4.4-3.6,6.6-5.5c0.6,1,0.9,1.5,1.2,1.9c0.2-0.1,0.5-0.2,0.7-0.3c-0.3-0.9-0.7-1.8-1-2.7
		c3.3-2.7,6.6-5.4,10-8.2c2.5,6.7,4.7,13.4,8.7,19.4C674.1,257.4,673.6,259.4,669.6,261.9z M677.6,233.1c-0.4-1.3-0.9-2.7-1.5-4.5
		c-0.8,1.3-1.3,2.1-2.1,3.5c-0.1-1.5-0.1-2.2-0.1-3c-0.2,0.1-0.4,0.3-0.6,0.4c-0.1-0.1-0.2-0.3-0.3-0.4c1.4-1.4,2.7-2.8,4-4.1
		c0.4,0.8,0.8,1.6,1.4,2.2C679.4,228.7,679.2,231.9,677.6,233.1z M1184.9,288c0.4,0.1,0.7,0.3,1,0.4c-0.2,0-0.5,0-0.7,0
		C1185,288.2,1184.9,288.1,1184.9,288z M1193,284.1c-0.1-0.2-0.1-0.3-0.2-0.5c0.2-0.1,0.4-0.2,0.5-0.3
		C1193.3,283.6,1193.2,283.8,1193,284.1z M1192.7,278.9c0.6,0.1,1.3,0.3,1.9,0.4c-0.1,0.5-0.2,1-0.3,1.5c-0.6-0.1-1.1-0.2-1.6-0.4
		C1192.7,279.9,1192.7,279.4,1192.7,278.9z M1187.1,280.8c1.3-0.3,2.3-0.6,2.7-0.7c1.2,1.4,2.1,2.5,3,3.5c-0.3,0.4-0.5,1.1-0.8,1.1
		c-2.5,0.1-5,0.2-7.6,0.2c0-0.6,0-1.1,0-1.7c1.8,0.5,3.7,0.9,5.5,1.4c0.1-0.4,0.2-0.9,0.3-1.3
		C1189.3,282.5,1188.3,281.7,1187.1,280.8z M896.2,234.6c-0.9-2.5,0.9-3.1,2.2-4C897.6,231.9,896.9,233.2,896.2,234.6L896.2,234.6z
		 M942.4,258.8c-1.1,0-2.3,0.4-3.3,1.6c-0.6,0.7-2.9,0.8-3.4,0.2c-1.2-1.2-1.5-0.6-2.5,0.1c-1.8,1.3-3.8,0-3.9-2.3
		c1.8-0.2,3.9,0.1,5.2-1.1c0.8,0,1.6-0.1,2.4-0.4c1.5-0.5,3.4,0.1,5.6,0.3C942.4,257.7,942.4,258.3,942.4,258.8z M898.2,226.8
		c-0.1,0.4-0.2,0.8-0.4,1.4c0.9-0.2,1.6-0.4,2.3-0.6c-0.2,0.4-0.5,0.8-0.7,1.2c-1.4,0.9-2.8,1.8-4.3,2.7c-1.5-2.9-3.8,1.7-5.5-0.8
		C892.5,229.3,895.3,228.1,898.2,226.8z M868.5,241.7c0,0.3,0.1,0.6,0.1,1c-3.3,2.2-6.9,1.4-10.5,1.2c-0.1,0-0.1-0.2-0.3-0.6
		C861.4,242.7,864.9,242.2,868.5,241.7z"/>
</g>
<g>
	<path d="M1188.2,286.1c-1.1,0.9-1.8,2.2-2.8,3.2c-0.5,0.5-1.2,1-1.9,1.2c-0.7,0.3-1.4,0.3-2.1,0.5c0.1,0.2,0.1,0.4,0.2,0.6
		c1,0.2,2,0.3,3,0.5c-0.2,1.1-0.3,2-0.4,2.8c0.2,0.1,0.4,0.1,0.5,0.2c0.6-1.1,1.2-2.1,1.7-3.2c0.2,0,0.5,0.1,0.7,0.1
		c-0.2,1.1-0.5,2.2-0.8,3.7c1.4,0.6,2.9,1.3,4.7,2.2c-0.7-4.6,5-6.2,3.4-10.6c-1-0.3-2.7-0.3-3.1-0.9"/>
	<path d="M1195.4,297.8c0.2-2.2,0.4-4.2,0.6-6.2C1193,295.9,1193,296.5,1195.4,297.8z"/>
	<path d="M469.8,432.9c-0.1-0.2-0.3-0.4-0.4-0.6c-1.8,1.2-3.7,2.3-5.1,3.3c-0.6-0.5-1.1-0.9-1.7-1.4c0.1,1,0.2,2,0.3,3.7
		C465.7,435.9,467.8,434.4,469.8,432.9z"/>
	<path d="M-76.9,299.4c-0.2,1-0.5,21-0.8,22c-0.7,2.3-0.5,3.9,0.8,5v14.4c-6.2,0.9-12.3,2-18.5,2.6c-6.7,0.6-10.6,4.3-12.5,10.4
		c-0.2,0.7-0.3,1.7,0.1,2.2c0.6,0.9,1.7,2,2.6,2.1c1.9,0,4.1-0.2,5.7-1.1c1.4-0.8,3.3-2,5-1.6c2.1,0.5,2.1,0.5,3.7-1.6
		c-1.1,0-2.2,0-3.2,0c0-0.1-0.1-0.3-0.1-0.4c1.4-0.6,2.7-1.2,4.7-2.1c-1.5-0.7-2.3-1.1-3-1.4c0-0.2,0.1-0.4,0.1-0.6
		c2,0,4.1,0.1,6.6,0.1c-1.4,0.6-2.5,1.1-3.5,1.6c0.1,0.2,0.1,0.5,0.2,0.7c2.4-0.4,4.8-0.8,7.2-1.1c0.1,0.2,0.1,0.4,0.2,0.6
		c-1,0.6-2,1.1-3.1,1.8c1,0.4,1.8,0.7,2.5,1c0,0.4,0,0.8,0,1.2c-3.9,0.9-7.7,1.7-11.6,2.6c-0.1-0.2-0.1-0.5-0.2-0.7
		c-0.4,0.8-0.8,1.5-1.1,2c5.1,0.4,10,0.9,15.2,1.3c-2.9,2.1-3.2,2.9-2.2,4.6c1.7-0.2,3.3-0.4,4.3-0.5c0.3-0.5,0.6-0.9,0.9-1.3v12.1
		c-0.4,0.2-0.8,0.5-1.2,0.7c0.4,0.1,0.9,0.2,1.2,0.3v1.6c-1-0.2-2-0.4-3.1-0.7c0,0.6-0.1,1.1-0.1,1.7c1,0.2,2.1,0.4,3.1,0.6v-16.9
		l0.1,11.5c0.1-8.3,0.2,17.3,0.3,9c0-1.2,0.1-2.4,0.2-3.5c1.2,0.2,2.3,0.4,3.5,0.5c8.3,0.4,16.6,1.6,24.9,0.3c4.7-0.8,6.3,0.5,7,5.3
		c0.5,3.1,2.6,5.2,5.7,5.2s6.2-0.1,8.9-0.1c-0.4,1.6-1.2,3.2-1,4.7c0.2,1.6,1.4,3,2.2,4.6c-9.8-1.5-10.9-1.2-13.6,3.4
		c1.2,1.3,2.1,2.5,3.1,3.6c0.4,0.4,1,0.6,1.4,0.9c2.6,2,6.3,2.7,7.6,6.3c0,0.1,0.3,0.1,0.5,0.1c0.3-0.8,0.5-1.6,1.1-3.2
		c0.7,1.8,1.2,2.9,1.6,3.9c1.2-0.1,2.3-0.3,3.4-0.4c0.3-0.8,0.6-1.5,0.9-2.4c1.6,1.4,3,2.7,4.5,3.8c1.6,1.3,2.2,2.5,0.8,4.3
		c-1,1.3-1,2.8,0.7,3.9c0.6,0.4,1.6,1.3,1.5,1.5c-1.3,2.9,2.2,3.4,2.2,5.1c2-0.7,3.6-1.2,5.2-1.7c1.5-0.5,1.5-2.3,3.4-3.1
		c2.5-0.9,4.6-1.9,7.3-1.6c2.3,0.3,4.6,0,7,0c1,0,2,0.1,3,0.1c-0.1,1-0.2,2-0.3,2.7c4.1,1.1,8.3,2.3,12.5,3.4
		c-0.1,0.2-0.1,0.5-0.2,0.7c-1.2-0.2-2.5-0.4-3.7-0.6c0.3,0.6,1,0.8,1.2,1.2s-0.1,1-0.2,1.5c-1.9-1.9-3,0.9-4.5,0.8
		c-2.7-0.3-5.3-1-7.8-1.4c0.7,2-4.2,1-3.1,4c0.6,1.7,1,3.5,1.4,5.2c1.4-1,2.4-2.2,3.8-2.7c3.5-1.4,7-2.5,10.6-3.6
		c0.2-0.1,0.6,0.3,1,0.4c2.4,1,4.8,0.9,7.3-0.1c1.6-0.6,3.3-1,5-1.1c0.9,0,1.9,1.2,2.8,1.2c4.4,0.1,7.8,1.5,9.3,6.1
		c0.9-0.5,1.6-0.8,2.3-1.2c0.3,0.7,0.6,1.3,0.8,1.8c0.2,0,0.4,0,0.7-0.1c0.1-0.7,0.1-1.5,0.2-1.8c4,1.4,7.5-1.2,11.3-1.6
		c3.8-0.3,7.5-0.9,11.6-1.5c0,1.5-0.1,2.8-0.1,4.7c3.3-2.2,5.8-6.4,10.8-3.9c-1.3,0.9-2.2,1.6-3.3,2.4c0.6,0.4,1.3,0.9,1.4,1
		c1.7-1,3.1-1.9,4.5-2.7c0,0.4-0.1,0.8-0.1,1.2c1,0.5,1.9,1,2.8,1.5c-0.1-2-0.2-3.7-0.3-5.5c2.2,0.3,3.8,3.6,5.1-0.2
		c0.1-0.3,1.4-0.2,2.2-0.1c1,0.1,1.9,0.6,2.9,0.6c1.8-0.1,3.6-0.5,5.3-0.8c0.2,0.9,0.4,1.8,0.5,2.2c2-0.7,3.6-1.3,5.3-1.9
		c0.2,0.9,0.4,1.9,0.6,2.7c1.8-1.9,3.7-3.8,4.8-4.9c3.9,0,7.2-0.1,10.7-0.1c0.9-1.7,2-2.3,4-0.4c0.8,0.7,2.6,0.3,4,0.1
		c1.1-0.1,2.1-0.7,3.1-1.1c0.1,0.3,0.2,0.5,0.3,0.8c0.3-0.5,0.6-1.1,0.9-1.8c0.6,0.8,0.9,1.7,1.4,1.7c1.9,0.2,3.9,0.2,5.8,0.2
		c0.6,0,1.2-0.5,1.6-0.9c1.5-1.5,2.9-3,4.9-1.9c0.6-0.7,1.1-1.3,1.6-1.8c0.6,0.6,1.2,1.2,1.3,1.3c1.7,0,3.1-0.1,4.5,0
		c0.6,0,1.3,0.7,1.9,0.6c2.6-0.4,5.1-1.2,7.7-1.4c2.9-0.3,5.7-0.1,8.8-0.2c0-0.1,0.4-0.8,0.9-0.9c0.5-0.1,1.1,0.5,1.7,0.7
		c0.9,0.4,1.7,1.2,2.6,1.2c3.6-0.2,7.1-0.7,10.7-1c0.2,0.3,0.3,0.6,0.5,0.8c0.2-0.3,0.5-0.6,0.7-0.9h0.1c4.6-0.4,9.2-0.6,13.9-0.9
		c-0.1,0.6-0.2,1.2-0.1,1.8c0.2,1.7-1,2.7-2.1,2.1c-2-1.2-2.6,0.2-3.7,1.2c-1.7,1.7-3.5,3.4-6.2,1.4c-1.6-1.2-2.9-0.4-3.7,1.2
		c-0.3,0.5-0.1,1.2-0.1,2c1.2-0.6,2.6-1.2,4-1.8c0.5,0.3,1.4,0.8,2.3,1.3c-0.7,0.5-1.3,0.9-2,1.3c0.1,0.3,0.2,0.5,0.3,0.8
		c1.7-0.4,3.3-0.8,5.1-1.2c-0.4,0.6-0.7,1.2-1,1.6c2.2-1.1,4.4-2.2,6.6-3.4c2-1.1,3.9-2.3,5.9-3.4c1.1-0.6,2.1-1.4,3.2-1.6
		c2.8-0.5,5.6-0.6,8.4-0.9c0.8-0.1,1.7-0.2,2.4,0.1c2.6,1.2,4.7,0.3,6.3-1.5c1.5-1.6,2-1,3,0.4c-1.1,0.3-2,0.6-2.9,0.9
		c-0.1,1.1-0.5,2.1-1.2,2.6c-1.1,0.7-2.6,0.8-3.6,1.6c-4.2,3.2-9,5.9-11.6,10.8c-0.7,1.4-1.2,2.9-1.9,4.7c4.7-1,8.7-1.8,13.4-2.8
		c-1.2-0.6-1.6-0.8-2.5-1.3c2.5-1.9,4.7-3.8,7-5.4c1.3-0.9,3-1.3,4.5-2c0.6-0.3,1.5-0.9,1.4-1.1c-0.5-2,1.2-2.3,2.2-3.3
		c0.2-0.2,0.4-0.6,0.6-1c-0.7-0.5-1.3-0.9-2-1.3c0.2-0.9,0.4-1.8,0.8-3.1c0.6,0.9,1,1.5,1.5,2.4c0.4-1,0.8-1.8,1.1-2.5
		c5.4,0,10.8-0.3,16.1,0.2c3.5,0.3,7.2-1.9,10.5,0.5h-0.1l0,0c-0.1,0.1-0.2,0.2-0.3,0.3c0.2,0,0.3-0.2,0.4-0.3l0,0c0.6,0,1.2,0,2,0
		c-0.6-0.5-0.9-0.8-1.3-1.1c0-0.3,0-0.6,0.1-0.9c2.5-0.1,5.1-0.1,8.7-0.2c2-1.9,7.2-1.5,9.6-6.8c-3.6,1.4-5.8,0.4-6.8-3.5
		c1.1,0.2,2.1,0.3,2.9,0.6c1.8,0.8,1.9-0.3,1.5-1.5c-0.3-0.8-0.9-1.5-1.6-2.6c4.5-1.2,9-2.4,13.5-3.5c0.1,0.2,0.2,0.4,0.3,0.7
		c-0.7,0.7-1.5,1.4-2.2,2.2c0.1,0.3,0.2,0.5,0.3,0.8c2.2-2.3,4.6-3.4,7.2-1.3c-0.9,1.4-1.7,2.7-2.3,3.8c0.4,0.5,0.7,0.7,0.8,1
		c0.2,0.7,0.1,1.6,0.5,2c0.8,0.7,2.4,0.9,2.6,1.7c0.3,0.9-0.6,2.1-1,3.4c1.2-0.5,2.7-0.8,3.3-1.7c0.4-0.5,0.3-1.4,0.3-2.3
		c0.2,0.1,0.4,0.2,0.7,0.3c0.2,0,0.4,0,0.5,0c0.8,0.7,1.6,0.6,2.3-1.1c0.1-0.1,0.2-0.1,0.4-0.2c0,0,0,0,0,0.1
		c-1,1.9-1.6,3.7,1.9,3.1c-0.6,0.7-1.1,1.3-1.5,1.8c2.2,1.3,4.3,2.5,6.5,3.9c0.5-0.2,1.4-0.5,2.4-0.9c-0.1,1.1-0.1,2-0.2,2.8
		c2.5,0.8,3.8-2.7,6.2-1.2c0.2-0.6,0.6-1.1,0.7-1.7c0-0.9-0.2-1.8-0.4-3.1c1.6,1,2.9,1.8,4.7,2.9c0.5-3.5,0.9-6.1,1.3-8.9
		c-1.2-0.4-2.1-0.7-3.8-1.4c2.6-1,4.4-1.8,6.2-2.5c-0.1-0.2-0.2-0.4-0.3-0.7c-1.3,0.1-2.5,0.2-3.8,0.3c0.3-1.5,0.7-2.5,0.7-3.5
		c0.1-1.6,0.8-2.1,2.2-1.5c3.2,1.5,4.5-0.4,5.3-2.9c0.5-1.4,0.5-2.9,0.9-4.3c0.3-1.2,0.8-2.4,1.5-4.3c4.5,6.7,11.4,10.8,11.8,18.9
		c0,0.1,0.1,0.2,0.1,0.3c1,3.5,2.2,6.9,3.1,10.4c0.8,3.1,1.4,6.2,4.3,8.2c0.2-0.3,0.3-0.6,0.6-1.2c1,1.8,1.8,3.4,2.7,4.9
		c0.1-0.1,0.3-0.1,0.4-0.2c-0.8-2-1.6-3.9-2.5-6.2c1.9-0.4,3.6-0.7,5.3-1c0.3,1,0.3,1.7,0.6,2.3c1.4,2.5,2.7,5,4.3,7.4
		c0.8,1.2,2,2.3,3.2,3.1c0.9,0.6,2.2,0.6,3.3,0.8c0.7,0.2,1.8,0.8,2.1,0.5c2-1.9,2.5-0.2,3.3,1.1c1.6,2.9,3.1,5.8,4.8,8.6
		c0.4,0.7,1.4,1.4,2.1,1.3c2.5-0.2,5-0.9,7.5-1.2c3.3-0.5,4.7-1.8,4.3-5.3c-0.3-2-1.3-4-2-6.1c2.7-1.3,2.7-4,0.7-7.9
		c2.1,0.2,3.6,0.4,5,0.5c1.8,0.2,3.6,0.2,4.6,2.5c1.1,2.6,3,4.9,4.6,7.4c3.4,5.3,7,10.5,10.1,16c3.3,5.9,8.3,7.9,14.6,7.1
		c0.7-0.1,1.7-0.4,2-1c0.5-0.9,1.2-2.4,0.8-3.2c-0.8-1.8-1.8-3.7-3.3-4.8c-1.3-1-3.2-2.2-3.5-3.9c-0.4-2.1-0.4-2.1-2.9-2.7
		c0.5,1,0.9,2,1.3,2.9c-0.1,0.1-0.2,0.2-0.3,0.3c-1.1-1-2.3-2-3.8-3.4c0,1.7,0,2.5-0.1,3.4c-0.2,0-0.4,0.1-0.6,0.1
		c-0.8-1.9-1.6-3.7-2.6-6c1.2,1,2,1.8,2.9,2.5c0.2-0.2,0.4-0.3,0.5-0.5c-1.3-2-2.7-4.1-4-6.1c0.2-0.1,0.3-0.3,0.5-0.4
		c0.9,0.7,1.9,1.4,2.9,2.1c0-1.1-0.1-1.9-0.1-2.7c0.4-0.2,0.7-0.3,1.1-0.5c2.4,3.2,4.8,6.3,7.1,9.5c-0.2,0.2-0.4,0.3-0.5,0.5
		c0.9,0.1,1.7,0.1,2.3,0.1c-1.7-4.8-3.3-9.5-5-14.4c0.8,0.5,1.4,0.8,2,1l0,0c0,0,0,0,0.1,0c0.8,0.3,1.4,0.4,1.9,0.2
		c0.9,0.1,1.8,0.2,2.7,0.2s1.9,0,2.6-0.4c1.4-0.9,2.7-2.1,3.9-3.3c1.6-1.6,1.9-0.4,2.3,1.1c0.5-0.5,1-1,1.5-1.5
		c-0.6-0.4-1.1-0.7-1.9-1.3c2-1.2,3.8-2.2,5.5-3.3v0.1l0,0c0,0,0,0,0-0.1c0.5-0.4,0.9-0.8,1.4-1.1c1.6-0.8,3.2-1.4,4.8-2.2
		c0.8-0.4,1.5-1.1,2.2-1.7c2.7-2.2,5.3-4.5,8.2-6.9c3.1,2,6.1,1.8,9-1.5c2.4-2.8,5.3-5.1,8.5-8.1c0-2.8,3.8-6.5,7.8-7.1
		c1.1-0.2,2.9-1.7,2.9-2.6c0.1-2.5,1.5-3.8,3.2-5.1c1.6-1.3,3-2.7,4.6-4c0.6-0.4,1.5-0.5,2.2-0.7c0,0.6,0,1.3,0,2
		c1.5-0.1,3-0.3,4.5-0.4c0,0.1,0,0.2,0.1,0.3c-1.3,0.5-2.6,1.1-3.9,1.6c0.1,0.3,0.2,0.5,0.3,0.8c2.7-1.1,5.6-2.1,8.2-3.3
		c3.2-1.5,5.2-1.3,6.7,1.4c1.2,2.2,2.8,3.5,5.5,3.5c2.9-0.1,4.1-2.3,5.4-4.3c1.3-1.9,2.3-4,3.5-6c0.2,0.2,0.4,0.5,0.6,0.7
		c1-0.4,2-0.7,2.8-1.3c2.7-1.8,5.3-3.8,8-5.6c1.2-0.8,2.7-1.3,4.2-2c-1.2,7-3.4,14.7,1.8,20.9c-0.9,0.7-1.9,1.3-2.4,2.1
		c-2.8,4.3-5.4,8.7-8.2,13c-3.2,4.7-6.5,9.4-11.7,12.2c-0.5,0.2-1,1.2-0.8,1.6c0.5,1.8,0.8,3.9,1.9,5.2c1.9,2.2,3.8,4.5,6.4,6.3
		c2.6,1.8,3.9,1.9,6.1,0.2c-0.1,1.4-0.1,2.5-0.2,3.5c0.2,0,0.4,0.1,0.5,0.1c0.6-1,1.2-2.1,1.8-3.1c0.2,0.1,0.3,0.1,0.5,0.2
		c-0.3,1.7-0.6,3.3-1,5.4c2.8-1.2,2.7,0.4,2.3,2c0.8-0.1,1.9-0.2,1.9-0.2c0.4,2.9,2.7,1.1,4.4,1.8c-0.7,0.9-1.4,1.8-2.6,3.3
		c4.1-1.2,6.5-3.5,8.8-5.9c0,0-0.6-0.6-0.9-1c4.8-0.3,3.6-5.9,7.1-7.2c-1-0.7-1.6-1.2-2.3-1.7c0.1-0.2,0.2-0.4,0.2-0.5
		c1,0.2,1.9,0.3,2.6,0.4c-0.3-1.7-0.7-3.4-1-5.1c1.1-0.3,1.8-0.4,2.5-0.6c-0.3-0.7-0.5-1.3-0.7-1.9c1,0.2,2,0.5,2.4,0.6
		c0.3-1.7,0.2-3.6,1-5c0.8-1.2,2.6-1.6,3.8-2.3c-0.2,0.8-0.5,2-0.8,3.1c0.2,0,0.3,0.1,0.5,0.1c2.9-5.3,5.7-10.7,8.5-15.8
		c1.7,0.5,3.3,0.6,4.3,1.4c3.2,2.6,3.4,2.9,5.8-0.1c1.8-2.2,5.7-3.1,5-7.2c-0.1-0.9,1.2-2.7,2-2.8c1.7-0.1,1.4-0.7,1.5-2
		c0.1-2.2,2.4-3,4.3-1.5c-1.2,1.8-3.3,3.5-2.1,5.8c1,2,1.5,3.8,1.2,6c0,0.2,0.2,0.5,0.4,0.7c1.2,1.4,8.1,2.7,9.8,1.9
		c1.6-0.7,2.6-0.8,3.6,1.3c0.6,1.3,2.4,2.1,3.9,3c-2.6,3.4-5.1,6.7-7.9,9.9c-4.4,5.1-4.6,10.4-1.7,16.2c0.3,0.7,1,1.5,1.6,1.6
		c1.1,0.2,2.6,0.3,3.3-0.3c1.4-1.3,2.8-3,3.4-4.7c0.5-1.5,1-3.7,2.5-4.6c1.9-1.1,1.9-1.1,1.6-3.7c-0.8,0.8-1.6,1.5-2.3,2.2
		c-0.1-0.1-0.2-0.1-0.4-0.2c0.6-1.4,1.1-2.8,1.9-4.8c-1.6,0.5-2.4,0.8-3.2,1.1c-0.1-0.2-0.2-0.3-0.3-0.5c1.5-1.4,3-2.8,4.8-4.5
		c-0.6,1.4-1,2.5-1.4,3.6c0.2,0.1,0.4,0.2,0.6,0.4c1.5-1.9,3-3.9,4.4-5.8c0.2,0.1,0.3,0.2,0.5,0.3c-0.3,1.1-0.6,2.2-1,3.4
		c1-0.4,1.8-0.7,2.5-1c0.3,0.3,0.6,0.6,0.8,0.8c-2.2,3.3-4.4,6.6-6.5,9.9c-0.2-0.1-0.4-0.2-0.6-0.3c0.2,0.8,0.5,1.7,0.6,2.2
		c3.5-2.8,6.9-5.6,10.4-8.4c0.4,0.2,0.8,0.4,1.2,0.6c0,0.5-0.1,0.9,0,1.3c-0.4,0.3-0.8,0.7-1.3,1.2c1.4,0.4,2.4,0.7,3.3,0.9
		c0.2-0.2,0.3-0.4,0.5-0.6c-0.1-0.1-0.1-0.2-0.2-0.2c0.9-1.1,1.7-2.1,2.3-2.8c-0.2-1.2-0.4-2.1-0.6-3.1c0.3-0.2,0.5-0.4,0.8-0.6
		c0.7,1.8,1.4,2.5,2.5,0.5c0.8-1.4,2.1-2.5,3-3.8c1-1.5,4.1-2.4,5.7-1.3c-1.1,0.9-2.2,1.7-3.7,2.9c1.5,0.3,2.4,0.5,4,0.8
		c-1.4,0.6-2.1,0.8-2.8,1.1c0.2,0.1,0.4,0.3,0.6,0.4c-1.2,1.9-2.3,3.8-3.4,5.6c0.9,0.5,1.9,1,2.9,1.5c-0.4,1.4-0.8,2.7-1.2,4.3
		c1.5-0.9,2.5-1.5,3.6-2.2c0.3,0.4,0.7,0.8,1,1.1c-1.7,1-3.4,2.1-5.1,3.1c0.4,0.4,0.8,0.9,1.1,1.3c2-1.4,4.2-2.6,6.1-4.2
		c6.3-5.4,13.1-10.3,18.1-17.1c2.9-3.8,4.9-4,8.7-1.1c2.5,1.9,5.5,1.9,7.7-0.3c2.2-2.1,4.4-4.4,6.3-6.2c0.8,1.4,1.3,3.1,2.5,4.1
		s3.1,1.2,4.8,1.8c-8.2,5.7-8.7,6.7-7.5,11.9c1.8,0.2,3.3,0.3,4.8,0.4c0.5,0,1.1-0.3,1.6-0.3c3.3-0.3,6.4-2.4,9.8-0.7
		c0.1,0,0.3-0.2,0.4-0.3c-0.4-0.7-0.7-1.5-1.5-3c1.8,0.8,2.8,1.3,3.8,1.7c0.8-0.9,1.5-1.8,2.1-2.6c-0.3-0.8-0.7-1.5-1-2.3
		c2.1-0.1,4-0.2,5.9-0.4c2.1-0.2,3.3,0.3,3.6,2.6c0.2,1.7,1.2,2.8,3.2,2.3c0.7-0.2,2-0.2,2.1,0c1.1,3,3.9,0.9,5.1,2.2
		c1-1.8,1.8-3.3,2.6-4.9c0.7-1.4-0.6-2.7,0.3-4.6c1.1-2.4,2-4.6,4.2-6.2c1.9-1.4,3.4-3.2,5-4.8c0.7-0.7,1.5-1.4,2.2-2
		c0.6,0.8,1.2,1.6,1.7,2.2c3.7-2,7.5-4.1,11.4-6.2c0.1,0.2,0.2,0.4,0.4,0.7c-1,0.7-2.1,1.4-3.1,2.2c0.7,0.2,1.3-0.1,1.7,0
		c0.4,0.2,0.6,0.8,0.9,1.3c-2.7-0.1-1.5,2.7-2.7,3.6c-2.2,1.6-4.5,3-6.6,4.4c1.8,1-2.4,3.6,0.5,5c1.6,0.8,3.1,1.8,4.6,2.8
		c0.3-1.7,0.2-3.3,0.8-4.6c1.5-3.4,3.4-6.7,5.1-9.9c0.1-0.2,0.6-0.2,1-0.4c2.5-0.9,4.1-2.7,5.2-5.1c0.7-1.5,1.7-3,2.9-4.2
		c0.7-0.7,2.2-0.4,2.9-1.1c3.2-3,6.7-4.3,10.9-2c0.3-1,0.6-1.7,0.8-2.5c0.7,0.3,1.3,0.5,1.8,0.7c0.1-0.2,0.3-0.3,0.4-0.5
		c-0.5-0.6-0.9-1.1-1.1-1.4c3.9-1.7,4.6-6.1,7-9c1-1.2,2.1-2.5,3.1-3.7c0.2,0.3,0.5,0.6,0.7,0.9c0.5,0,1.4,0,2.6,0
		c-0.5,1-0.8,1.8-1.2,2.6c2.1,1.6,4.5-1.2,6.3,0.9c0.4-0.5,1-0.8,1.2-1.4c0.3-0.8,0.4-1.8,0.7-3.1c1.2,1.5,2.1,2.7,3.5,4.4
		c1.6-3.1,2.9-5.5,4.2-7.9c-0.9-0.8-1.7-1.4-3.1-2.6c2.8-0.1,4.7-0.2,6.7-0.3c0-0.2,0-0.5,0-0.7c-1.2-0.3-2.4-0.6-3.7-1
		c0.8-1.3,1.5-2.1,1.8-3c0.6-1.4,1.5-1.7,2.6-0.7c2.5,2.5,4.3,1.1,6-0.9c0.9-1.1,1.5-2.5,2.3-3.7c0.7-1,1.6-2,2.9-3.6
		c2,7.8,7,14,4.7,21.8c0,0.1,0,0.2,0,0.3c-0.2,3.6-0.3,7.2-0.6,10.8c-0.3,3.2-0.8,6.3,1.3,9.2c0.3-0.3,0.5-0.5,1-0.9
		c0.3,2,0.6,3.8,0.9,5.6c0.2,0,0.3,0,0.5,0c-0.1-2.1-0.2-4.2-0.3-6.7c2,0.3,3.6,0.6,5.3,0.8c-0.1,1.1-0.3,1.7-0.2,2.4
		c0.4,2.8,0.8,5.7,1.5,8.4c0.3,1.4,1,2.9,1.9,4c0.6,0.9,1.9,1.3,2.8,1.9c0.6,0.4,1.4,1.3,1.8,1.2c2.5-1.1,2.4,0.7,2.7,2.2
		c0.5,3.2,1,6.5,1.6,9.7c0.2,0.8,0.9,1.8,1.5,2c2.5,0.6,5,0.9,7.5,1.4c3.3,0.7,5.1-0.1,5.8-3.5c0.5-2,0.2-4.2,0.2-6.4
		c2.9-0.3,3.9-2.8,3.4-7.2c1.9,0.9,3.2,1.5,4.5,2.2c1.7,0.8,3.3,1.4,3.4,3.9c0.2,2.9,1.2,5.7,1.8,8.5c1.4,6.2,3,12.3,4.1,18.5
		c1.2,6.6,5.1,10.2,11.4,11.6c0.7,0.2,1.8,0.2,2.2-0.2c0.8-0.7,1.9-1.8,1.9-2.7c-0.1-1.9-0.5-4.1-1.5-5.6c-0.9-1.3-2.3-3.1-2-4.9
		c0.4-2.1,0.4-2.1-1.8-3.5c0.1,1.1,0.2,2.2,0.2,3.2c-0.1,0.1-0.3,0.1-0.4,0.2c-0.7-1.3-1.4-2.6-2.5-4.5c-0.6,1.5-0.9,2.3-1.2,3.1
		c-0.2,0-0.4,0-0.6-0.1c-0.1-2-0.2-4.1-0.4-6.6c0.7,1.4,1.3,2.4,1.8,3.4c0.2-0.1,0.5-0.2,0.7-0.3c-0.6-2.4-1.1-4.8-1.7-7.1
		c0.2-0.1,0.4-0.1,0.6-0.2c0.6,1,1.3,1.9,2,2.9c0.3-1,0.6-1.8,0.8-2.6c0.4,0,0.8-0.1,1.2-0.1c1.2,3.8,2.3,7.6,3.5,11.4
		c-0.2,0.1-0.4,0.2-0.7,0.3c0.8,0.3,1.6,0.7,2.1,0.9c0.1-5.1,0.1-10.1,0.2-15.3c2.3,2.8,3.1,3,4.7,1.9c-0.3-1.7-0.7-3.2-0.9-4.3
		c-1.1-0.6-1.9-1-2.8-1.5c0-0.3,0-0.6,0.1-1c1.9,0.6,2.8,0.5,2-1.6c-0.6-1.5-0.6-3.2-1.1-4.7c-0.6-1.7,0.7-4.7,2.6-5.2
		c0,1.4-0.1,2.8-0.1,4.7c1.2-0.9,1.9-1.5,3.2-2.6c-0.4,1.4-0.7,2.1-0.9,2.9c0.2-0.1,0.5-0.1,0.7-0.2c0.6,1.9,1.3,3.7,1.9,5.5
		c-1,1.1-1.9,2.2-2.9,3.4c-0.5,0.6-0.8,1.8-0.6,2.4c1.1,2.3,2.5,4.4,3.7,6.7c1.6,3,3.3,3.8,6.4,2.3c1.8-0.9,3.3-2.5,5.1-3.9
		c2.1,2.1,4.7,1.2,7.7-2c0.5,2.1,0.9,3.5,1.2,4.9c0.4,1.8,1.1,3.4-0.8,5.1c-2.1,1.9-3.6,4.5-5.4,6.8c-3.9,5-7.6,10.1-11.7,14.9
		c-4.4,5.1-4.6,10.4-1.7,16.2c0.3,0.7,1,1.5,1.6,1.6c1.1,0.2,2.6,0.3,3.3-0.3c1.4-1.3,2.8-3,3.4-4.7c0.5-1.5,1-3.7,2.5-4.6
		c1.9-1.1,1.9-1.1,1.6-3.7c-0.8,0.8-1.6,1.5-2.3,2.2c-0.1-0.1-0.2-0.1-0.4-0.2c0.6-1.4,1.1-2.8,1.9-4.8c-1.6,0.5-2.4,0.8-3.2,1.1
		c-0.1-0.2-0.2-0.3-0.3-0.5c1.5-1.4,3-2.8,4.8-4.5c-0.6,1.4-1,2.5-1.4,3.6c0.2,0.1,0.4,0.2,0.6,0.4c1.5-1.9,3-3.9,4.4-5.8
		c0.2,0.1,0.3,0.2,0.5,0.3c-0.3,1.1-0.6,2.2-1,3.4c1-0.4,1.8-0.7,2.5-1c0.3,0.3,0.6,0.6,0.8,0.8c-2.2,3.3-4.4,6.6-6.5,9.9
		c-0.2-0.1-0.4-0.2-0.6-0.3c0.2,0.8,0.5,1.7,0.6,2.2c4-3.2,7.8-6.3,11.9-9.6c-0.7,3.6-0.3,4.3,1.6,4.8c1.1-1.4,2.1-2.6,2.7-3.4
		c-0.2-1.2-0.4-2.1-0.6-3.1c0.3-0.2,0.5-0.4,0.8-0.6c0.7,1.8,1.4,2.5,2.5,0.5c0.8-1.4,2.1-2.5,3-3.8c1-1.5,4.1-2.4,5.7-1.3
		c-1.1,0.9-2.2,1.7-3.7,2.9c1.5,0.3,2.4,0.5,4,0.8c-1.4,0.6-2.1,0.8-2.8,1.1c0.2,0.1,0.4,0.3,0.6,0.4c-1.2,1.9-2.3,3.8-3.4,5.6
		c0.9,0.5,1.9,1,2.9,1.5c-0.4,1.4-0.8,2.7-1.2,4.3c1.5-0.9,2.5-1.5,3.6-2.2c0.3,0.4,0.7,0.8,1,1.1c-1.7,1-3.4,2.1-5.1,3.1
		c0.4,0.4,0.8,0.9,1.1,1.3c2-1.4,4.2-2.6,6.1-4.2c6.3-5.4,13.1-10.3,18.1-17.1c2.9-3.8,4.9-4,8.7-1.1c2.5,1.9,5.5,1.9,7.7-0.3
		c2.2-2.1,4.4-4.4,6.3-6.2c0.8,1.4,1.3,3.1,2.5,4.1s3.1,1.2,4.8,1.8c-8.2,5.7-8.7,6.7-7.5,11.9c1.8,0.2,3.3,0.3,4.8,0.4
		c0.5,0,1.1-0.3,1.6-0.3c3.3-0.3,6.4-2.4,9.8-0.7c0.1,0,0.3-0.2,0.4-0.3c-0.4-0.7-0.7-1.5-1.5-3c1.8,0.8,2.8,1.3,3.8,1.7
		c0.8-0.9,1.5-1.8,2.1-2.6c-0.3-0.8-0.7-1.5-1-2.3c2.1-0.1,4-0.2,5.9-0.4c2.1-0.2,3.3,0.3,3.6,2.6c0.2,1.7,1.2,2.8,3.2,2.3
		c0.7-0.2,2-0.2,2.1,0c1.1,3,3.9,0.9,5.1,2.2c1-1.8,1.8-3.3,2.6-4.9c0.7-1.4-0.6-2.7,0.3-4.6c1.1-2.4,2-4.6,4.2-6.2
		c1.9-1.4,3.4-3.2,5-4.8c0.7-0.7,1.5-1.4,2.2-2c0.6,0.8,1.2,1.6,1.7,2.2c3.7-2,7.5-4.1,11.4-6.2c0.1,0.2,0.2,0.4,0.4,0.7
		c-1,0.7-2.1,1.4-3.1,2.2c0.7,0.2,1.3-0.1,1.7,0c0.4,0.2,0.6,0.8,0.9,1.3c-2.7-0.1-1.5,2.7-2.7,3.6c-2.2,1.6-4.5,3-6.6,4.4
		c1.8,1-2.4,3.6,0.5,5c1.6,0.8,3.1,1.8,4.6,2.8c0.3-1.7,0.2-3.3,0.8-4.6c1.5-3.4,3.4-6.7,5.1-9.9c0.1-0.2,0.6-0.2,1-0.4
		c2.5-0.9,4.1-2.7,5.2-5.1c0.7-1.5,1.7-3,2.9-4.2c0.7-0.7,2.2-0.4,2.9-1.1c3.2-3,6.7-4.3,10.9-2c0.3-1,0.6-1.7,0.8-2.5
		c0.7,0.3,1.3,0.5,1.8,0.7c0.1-0.2,0.3-0.3,0.4-0.5c-0.5-0.6-0.9-1.1-1.1-1.4c3.9-1.7,4.6-6.1,7-9c2.5-2.9,4.7-5.9,7.4-9.1
		c1,1.1,1.9,2.1,3.2,3.5c0.8-3.9-0.3-8.6,5.1-10.3c-0.3,1.5-0.5,2.7-0.7,4c0.8-0.1,1.5-0.2,1.6-0.3c0.5-1.9,0.9-3.5,1.3-5.1
		c0.2,0.3,0.5,0.6,0.7,0.9c1-0.3,2.1-0.6,3-0.9c-1.4-1.3-2.7-2.5-4.1-3.8c1.8-1.3,5.2,0,3.6-3.7c-0.1-0.3,0.9-1.1,1.5-1.6
		c0.8-0.6,1.8-0.9,2.5-1.6c1.2-1.3,2.2-2.9,3.3-4.3c0.8,0.5,1.5,1,1.9,1.3c0.9-1.9,1.7-3.5,2.5-5c0.8,0.5,1.6,1,2.3,1.5
		c0-2.6,0-5.3,0-6.9c2.8-2.7,5.1-5,7.6-7.5c-0.5-1.8-0.2-3,2.6-3.1c1,0,2.1-1.6,2.9-2.6c0.7-0.8,1-1.9,1.5-2.9
		c0.3,0.1,0.5,0.2,0.8,0.3c-0.2-0.6-0.3-1.2-0.6-1.9c0.9,0.2,1.8,0.6,2.2,0.3c1.5-1.2,3-2.5,4.3-3.9c0.4-0.4,0.5-1.2,0.5-1.8
		c0-2.1,0-4.2,2.2-4.8c0-1-0.1-1.7-0.1-2.5c0.8,0,1.7,0,1.9,0c1.2-1.2,2.2-2.2,3.2-3.1c0.5-0.4,1.4-0.4,1.8-0.9
		c1.6-2.1,2.9-4.4,4.6-6.4c1.9-2.2,4-4.1,6.2-6.2c0-0.1-0.3-0.9,0-1.3c0.3-0.4,1.1-0.4,1.7-0.6c0.4,0.3,1.6,0.3,2.1-0.3
		c2.7-3,5.2-6.1,7.9-9.1c3.2-3.6,6.5-7.1,9.8-10.8c1.3,0.4,2.9,0.9,4.7,1.4c-1.2-5.2-2.4-10-4-14.7c-1.9-2.2-4.1-5-8.1-1.9
		c0.5-1.5,0.8-2.4,1.2-3.4c-0.2-0.1-0.4-0.2-0.5-0.3c-2,2.7-4,5.4-5.8,7.8c-1.6-0.7-2.9-1.2-4.2-1.8c0.4-0.5,0.8-1,1.2-1.4
		c-1.9-0.9-3.7-1.8-5.4-2.7c0.3,0.3,0.5,0.7,0.8,1c-2.1,1.6-4.2,3.2-6.2,4.8c-3.3,2.6-6.9,4.9-9.8,7.8c-2.1,2.1-5,3.4-6.5,6.2
		c-0.8,1.4-2.6,2.3-4.3,3.7c-1.6-1.9-3.3-4-4.9-5.9c0.8-0.5,2.5-1.3,2.4-1.5c-0.7-1.9,0.7-2.3,1.9-3c0.2-0.1,0.3-0.5,0.4-0.7
		c0.9-1.6,1.4-3.4,2.6-4.7c1.9-2.1,2.9-8.2,1.1-10.3s-3.6-4.1-5.9-6.7c1-0.7,2.2-1.6,3.5-2.6 M1126.8,285.5
		c-0.6,0.2-1.1,0.4-1.7,0.5 M1138.1,286.9c-0.6,0.4-1.5,0.3-2.3,0.5c0.1-0.6,0.1-1.3,0.2-2c-1.5,0-3,0-4.5,0 M1144.5,308.4
		c0.6,3-1.3,6.4-5,9C1138.4,312.2,1139.1,311.1,1144.5,308.4z M973.8,470.4c0.4,0.4,0.8,0.8,1.2,1.2c-1.6,0.9-3.3,1.9-4.9,2.8
		c0.2,0.4,0.5,0.8,0.7,1.2c1.2-0.1,2.4-0.2,3.9-0.4c-0.7,1.1-1.2,2-1.4,2.4c-1.9-0.2-3.2-0.3-4.6-0.4c-0.1-0.5-0.4-1.1-0.2-1.3
		C970.2,473.9,972,472.1,973.8,470.4z M932.6,420.3c-0.3,1.9-0.6,3.7-1,5.6c0.3,0,0.6,0.1,0.8,0.1c-0.3,0.3-0.6,0.7-0.9,1
		c-0.3-2.2-0.5-4.3-0.7-6.5C931.5,420.4,932.1,420.3,932.6,420.3z M668.8,429.4c0.4,0.4,0.8,0.8,1.2,1.2c-1.6,0.9-3.3,1.9-4.9,2.8
		c0.2,0.4,0.5,0.8,0.7,1.2c1.2-0.1,2.4-0.2,3.9-0.4c-0.7,1.1-1.2,2-1.4,2.4c-1.9-0.2-3.2-0.3-4.6-0.4c-0.1-0.5-0.4-1.1-0.2-1.3
		C665.2,432.9,667,431.1,668.8,429.4z M569.5,425.7c-1,0.2-2,0.5-3,0.7c-0.1,1.3-0.2,2.9-0.4,4.7c-0.7-0.6-1.4-1.2-2.1-1.8
		c-1.4,1.1-1.4,1.1,1.4,2.3l-4.9,1C562.5,426.8,564,425.5,569.5,425.7z M511.1,363.6c1.5,5,1,6.2-4.2,9.4
		C506.1,370,507.7,366.4,511.1,363.6z M444.5,433.2c-0.2,0.2,0.3,1,0.4,1.5c0.3,0.1,0.6,0.1,0.9,0.2c-0.6,0.5-1.1,0.9-1.7,1.4
		c0.5,0.3,1,0.5,1,0.6c-0.1,0.3-0.1,0.6-0.2,0.9l0,0c-1.2-0.2-2.1-0.3-3.1-0.5c-0.1-0.3-0.2-0.6-0.3-0.9c2-0.1,2.8-0.5,1.3-2.1
		c-0.1-0.1-0.2-0.3-0.3-0.4c2-1.7,3.5-4,3.1-5.5c0.6,0.8,1.2,1.5,1.8,2.2C446.5,431.3,445.5,432.3,444.5,433.2z M449.8,428.7
		c-0.8-1.7-1.7-3.4-2.5-5.2c0.5-0.2,1-0.5,1.5-0.7c0.3,1.9,0.7,3.7,1,5.6c0.2-0.1,0.5-0.1,0.7-0.2
		C450.3,428.4,450.1,428.6,449.8,428.7z M451.2,427.8c0.3-1.1,0.6-2.2,0.9-3.5l0,0C452.9,426,452.3,427,451.2,427.8z M449,395.4
		c2.7-1.7,3.6-4.5,2.4-7.4c-0.7-1.7-1.5-3.3-2.3-4.9c0.3-0.6,0.7-1.1,1-1.6c1.7,0.5,3,1,4.4,1.4c-0.4,0.5-0.7,1-1.1,1.5
		c2,0.8,3.8,1.5,5.7,2.3c-0.3-0.3-0.6-0.6-0.9-0.9c0.4-0.4,0.8-0.8,1.3-1.1c1.1,1,2.5,1.3,4.8,1.6c0.8-1.6,1.4-3,2-4.3
		c0.2-0.5,0.1-1.1,0.2-1.6c0.2-0.7,0.3-1.5,0.3-2.3c2.2-1.9,4.4-3.9,6.3-6.1c1.9-2.3,4.6-3.8,6-6.8c0.7-1.5,2.4-2.5,3.9-4
		c1.7,1.7,3.6,3.7,5.4,5.5c-0.8,0.6-2.3,1.5-2.3,1.7c0.8,1.9-0.5,2.4-1.6,3.1c-0.2,0.1-0.3,0.5-0.4,0.8c-0.7,1.7-1.1,3.5-2.2,4.9
		c-1.7,2.2-2.1,8.4-0.2,10.4c1.9,1.9,3.9,3.8,6.4,6.1c-0.9,0.8-2.1,1.8-3.3,2.9c-1.1,0.9-2.3,1.7-3.3,2.7c-0.7,0.7-1.3,1.6-1.9,2.4
		c-0.3-0.1-0.5-0.3-0.8-0.4c0.2,0.5,0.4,0.9,0.6,1.6c-0.8,0-1.6-0.1-2-0.1c0.1,1,0.6,2.3,0.2,2.7c-1.4,1.3-3,2.3-4.6,3.4h0.1
		c-2.2,1.8-4.4,3.6-6.6,5.5c-0.6-1-0.9-1.5-1.2-1.9c-0.2,0.1-0.5,0.2-0.7,0.3c0.3,0.9,0.7,1.8,1,2.7c-3.3,2.7-6.6,5.4-10,8.2
		c-2.5-6.7-4.7-13.4-8.7-19.4C444.5,399.9,445,397.9,449,395.4z M441,424.2c0.4,1.3,0.9,2.7,1.5,4.5c0.8-1.3,1.3-2.1,2.1-3.5
		c0.1,1.5,0.1,2.2,0.1,3c0.2-0.1,0.4-0.3,0.6-0.4c0.1,0.1,0.2,0.3,0.3,0.4c-1.4,1.4-2.7,2.8-4,4.1c-0.4-0.8-0.8-1.6-1.4-2.2
		C439.2,428.6,439.4,425.4,441,424.2z M-66.3,369.3c-0.4-0.1-0.7-0.3-1-0.4c0.2,0,0.5,0,0.7,0C-66.4,369.1-66.3,369.2-66.3,369.3z
		 M-74.4,373.2c0.1,0.2,0.1,0.3,0.2,0.5c-0.2,0.1-0.4,0.2-0.5,0.3C-74.7,373.7-74.6,373.5-74.4,373.2z M-74.1,378.4
		c-0.6-0.1-1.3-0.3-1.9-0.4c0.1-0.5,0.2-1,0.3-1.5c0.6,0.1,1.1,0.2,1.6,0.4C-74.1,377.4-74.1,377.9-74.1,378.4z M-68.5,376.5
		c-1.3,0.3-2.3,0.6-2.7,0.7c-1.2-1.4-2.1-2.5-3-3.5c0.3-0.4,0.5-1.1,0.8-1.1c2.5-0.1,5-0.2,7.6-0.2c0,0.6,0,1.1,0,1.7
		c-1.8-0.5-3.7-0.9-5.5-1.4c-0.1,0.4-0.2,0.9-0.3,1.3C-70.7,374.8-69.7,375.6-68.5,376.5z M222.4,422.7c0.9,2.5-0.9,3.1-2.2,4
		C221,425.4,221.7,424.1,222.4,422.7L222.4,422.7z M176.2,398.5c1.1,0,2.3-0.4,3.3-1.6c0.6-0.7,2.9-0.8,3.4-0.2
		c1.2,1.2,1.5,0.6,2.5-0.1c1.8-1.3,3.8,0,3.9,2.3c-1.8,0.2-3.9-0.1-5.2,1.1c-0.8,0-1.6,0.1-2.4,0.4c-1.5,0.5-3.4-0.1-5.6-0.3
		C176.2,399.6,176.2,399,176.2,398.5z M220.4,430.5c0.1-0.4,0.2-0.8,0.4-1.4c-0.9,0.2-1.6,0.4-2.3,0.6c0.2-0.4,0.5-0.8,0.7-1.2
		c1.4-0.9,2.8-1.8,4.3-2.7c1.5,2.9,3.8-1.7,5.5,0.8C226.1,428,223.3,429.2,220.4,430.5z M250.1,415.6c0-0.3-0.1-0.6-0.1-1
		c3.3-2.2,6.9-1.4,10.5-1.2c0.1,0,0.1,0.2,0.3,0.6C257.2,414.6,253.7,415.1,250.1,415.6z"/>
</g>
</svg>
